<svg xmlns="http://www.w3.org/2000/svg" xmlns:xlink="http://www.w3.org/1999/xlink" width="400" zoomAndPan="magnify" viewBox="0 0 300 112.499997" height="150" preserveAspectRatio="xMidYMid meet" version="1.0"><defs><g/><clipPath id="756376e9f7"><path d="M 4.398438 30.839844 L 45.464844 30.839844 L 45.464844 71.90625 L 4.398438 71.90625 Z M 4.398438 30.839844 " clip-rule="nonzero"/></clipPath><clipPath id="38d54d2838"><path d="M 24.929688 30.839844 C 13.589844 30.839844 4.398438 40.03125 4.398438 51.371094 C 4.398438 62.710938 13.589844 71.90625 24.929688 71.90625 C 36.269531 71.90625 45.464844 62.710938 45.464844 51.371094 C 45.464844 40.03125 36.269531 30.839844 24.929688 30.839844 Z M 24.929688 30.839844 " clip-rule="nonzero"/></clipPath><clipPath id="34f19967fb"><path d="M 13 49 L 36.785156 49 L 36.785156 62.085938 L 13 62.085938 Z M 13 49 " clip-rule="nonzero"/></clipPath><clipPath id="411c723bd0"><path d="M 13 51 L 36.785156 51 L 36.785156 59 L 13 59 Z M 13 51 " clip-rule="nonzero"/></clipPath><clipPath id="8b621d5d4c"><path d="M 19 40.429688 L 30 40.429688 L 30 49 L 19 49 Z M 19 40.429688 " clip-rule="nonzero"/></clipPath><clipPath id="ab58a0477d"><path d="M 12.890625 43 L 36.785156 43 L 36.785156 58 L 12.890625 58 Z M 12.890625 43 " clip-rule="nonzero"/></clipPath><clipPath id="8ca8fab0f7"><path d="M 20 40.429688 L 30 40.429688 L 30 44 L 20 44 Z M 20 40.429688 " clip-rule="nonzero"/></clipPath></defs><g clip-path="url(#756376e9f7)"><g clip-path="url(#38d54d2838)"><path fill="#ffde59" d="M 4.398438 30.839844 L 45.464844 30.839844 L 45.464844 71.90625 L 4.398438 71.90625 Z M 4.398438 30.839844 " fill-opacity="1" fill-rule="nonzero"/><path stroke-linecap="butt" transform="matrix(0.746681, 0, 0, 0.746681, 4.397128, 30.83794)" fill="none" stroke-linejoin="miter" d="M 27.498421 0.00254923 C 12.31143 0.00254923 0.00175375 12.312225 0.00175375 27.499216 C 0.00175375 42.686207 12.31143 55.001114 27.498421 55.001114 C 42.685411 55.001114 55.000319 42.686207 55.000319 27.499216 C 55.000319 12.312225 42.685411 0.00254923 27.498421 0.00254923 Z M 27.498421 0.00254923 " stroke="#ffde59" stroke-width="2" stroke-opacity="1" stroke-miterlimit="4"/></g></g><g clip-path="url(#34f19967fb)"><path fill="#995a25" d="M 14.550781 62.082031 L 35.113281 62.082031 C 35.691406 62.082031 36.164062 61.613281 36.164062 61.050781 L 36.164062 51.664062 C 36.164062 50.277344 35.019531 49.152344 33.644531 49.152344 L 16.03125 49.152344 C 14.644531 49.152344 13.515625 50.277344 13.515625 51.664062 L 13.515625 61.050781 C 13.515625 61.613281 13.988281 62.082031 14.550781 62.082031 Z M 14.550781 62.082031 " fill-opacity="1" fill-rule="evenodd"/></g><g clip-path="url(#411c723bd0)"><path fill="#85471e" d="M 36.164062 58.070312 L 36.164062 51.664062 C 36.164062 51.558594 36.148438 51.453125 36.136719 51.347656 L 13.542969 51.347656 C 13.527344 51.453125 13.515625 51.558594 13.515625 51.664062 L 13.515625 58.070312 Z M 36.164062 58.070312 " fill-opacity="1" fill-rule="evenodd"/></g><g clip-path="url(#8b621d5d4c)"><path fill="#995a25" d="M 22.96875 40.808594 L 26.707031 40.808594 C 27.535156 40.808594 28.292969 41.148438 28.84375 41.699219 L 28.84375 41.710938 C 29.394531 42.261719 29.738281 43.007812 29.738281 43.84375 L 29.738281 45.960938 C 29.738281 46.796875 29.394531 47.558594 28.84375 48.105469 C 28.292969 48.65625 27.535156 48.996094 26.707031 48.996094 L 22.96875 48.996094 C 22.128906 48.996094 21.371094 48.65625 20.820312 48.105469 C 20.269531 47.558594 19.925781 46.796875 19.925781 45.960938 L 19.925781 43.84375 C 19.925781 43.007812 20.269531 42.261719 20.820312 41.710938 L 20.820312 41.699219 C 21.371094 41.148438 22.128906 40.808594 22.96875 40.808594 Z M 26.707031 42.105469 L 22.96875 42.105469 C 22.484375 42.105469 22.050781 42.300781 21.738281 42.613281 C 21.421875 42.929688 21.226562 43.359375 21.226562 43.84375 L 21.226562 45.960938 C 21.226562 46.445312 21.421875 46.875 21.738281 47.191406 C 22.050781 47.503906 22.484375 47.699219 22.96875 47.699219 L 26.707031 47.699219 C 27.179688 47.699219 27.625 47.503906 27.941406 47.191406 C 28.253906 46.875 28.453125 46.445312 28.453125 45.960938 L 28.453125 43.84375 C 28.453125 43.359375 28.253906 42.929688 27.941406 42.613281 C 27.625 42.300781 27.179688 42.105469 26.707031 42.105469 Z M 26.707031 42.105469 " fill-opacity="1" fill-rule="nonzero"/></g><g clip-path="url(#ab58a0477d)"><path fill="#ad6d2e" d="M 13.988281 43.84375 L 35.675781 43.84375 C 36.28125 43.84375 36.777344 44.339844 36.777344 44.941406 L 36.777344 54.839844 C 36.777344 56.292969 35.585938 57.480469 34.128906 57.480469 L 15.546875 57.480469 C 14.09375 57.480469 12.898438 56.292969 12.898438 54.839844 L 12.898438 44.941406 C 12.898438 44.339844 13.382812 43.84375 13.988281 43.84375 Z M 13.988281 43.84375 " fill-opacity="1" fill-rule="evenodd"/></g><path fill="#e28f25" d="M 15.21875 43.84375 L 15.21875 54.628906 C 15.21875 54.761719 15.285156 54.890625 15.378906 54.96875 C 15.46875 55.0625 15.585938 55.128906 15.71875 55.128906 L 33.960938 55.128906 C 34.089844 55.128906 34.207031 55.0625 34.300781 54.96875 C 34.390625 54.890625 34.445312 54.761719 34.445312 54.628906 L 34.445312 43.84375 L 35.179688 43.84375 L 35.179688 54.628906 C 35.179688 54.96875 35.046875 55.269531 34.824219 55.492188 C 34.601562 55.714844 34.285156 55.859375 33.960938 55.859375 L 15.71875 55.859375 C 15.378906 55.859375 15.074219 55.714844 14.851562 55.492188 C 14.628906 55.269531 14.484375 54.96875 14.484375 54.628906 L 14.484375 43.84375 Z M 15.21875 43.84375 " fill-opacity="1" fill-rule="nonzero"/><g clip-path="url(#8ca8fab0f7)"><path fill="#e28f25" d="M 22.96875 40.429688 L 26.707031 40.429688 C 27.613281 40.429688 28.476562 40.785156 29.121094 41.4375 C 29.238281 41.554688 29.34375 41.671875 29.449219 41.804688 L 27.835938 43.085938 C 27.78125 43.019531 27.730469 42.941406 27.664062 42.886719 C 27.402344 42.628906 27.0625 42.484375 26.707031 42.484375 L 22.96875 42.484375 C 22.601562 42.484375 22.261719 42.628906 22.011719 42.886719 C 21.945312 42.941406 21.894531 43.019531 21.84375 43.085938 L 20.230469 41.804688 C 20.320312 41.671875 20.4375 41.554688 20.542969 41.4375 L 20.558594 41.4375 C 21.199219 40.785156 22.066406 40.429688 22.96875 40.429688 Z M 22.96875 40.429688 " fill-opacity="1" fill-rule="evenodd"/></g><path fill="#85471e" d="M 16.296875 57.859375 L 17.09375 57.859375 L 17.09375 60.421875 C 17.09375 60.644531 16.910156 60.816406 16.6875 60.816406 C 16.480469 60.816406 16.296875 60.644531 16.296875 60.421875 Z M 32.582031 57.859375 L 33.367188 57.859375 L 33.367188 60.421875 C 33.367188 60.644531 33.199219 60.816406 32.976562 60.816406 C 32.765625 60.816406 32.582031 60.644531 32.582031 60.421875 Z M 32.582031 57.859375 " fill-opacity="1" fill-rule="evenodd"/><path fill="#e28f25" d="M 15.21875 45.753906 L 34.445312 45.753906 L 34.445312 46.511719 L 15.21875 46.511719 Z M 15.21875 45.753906 " fill-opacity="1" fill-rule="evenodd"/><path fill="#ce7c29" d="M 15.21875 45.753906 L 15.824219 45.753906 L 15.824219 46.511719 L 15.21875 46.511719 Z M 15.21875 45.753906 " fill-opacity="1" fill-rule="evenodd"/><path fill="#ce7c29" d="M 33.855469 45.753906 L 34.445312 45.753906 L 34.445312 46.511719 L 33.855469 46.511719 Z M 33.855469 45.753906 " fill-opacity="1" fill-rule="evenodd"/><path fill="#ffd753" d="M 22.222656 54.34375 L 27.453125 54.34375 C 27.808594 54.34375 28.097656 54.644531 28.097656 54.996094 L 28.097656 56.042969 C 28.097656 56.410156 27.808594 56.695312 27.453125 56.695312 L 22.222656 56.695312 C 21.867188 56.695312 21.566406 56.410156 21.566406 56.042969 L 21.566406 54.996094 C 21.566406 54.644531 21.867188 54.34375 22.222656 54.34375 Z M 22.222656 54.34375 " fill-opacity="1" fill-rule="evenodd"/><path fill="#e28f25" d="M 23.113281 56.695312 L 26.550781 56.695312 L 26.550781 58.515625 C 26.550781 58.867188 26.261719 59.15625 25.90625 59.15625 L 23.769531 59.15625 C 23.402344 59.15625 23.113281 58.867188 23.113281 58.515625 Z M 23.113281 56.695312 " fill-opacity="1" fill-rule="evenodd"/><path fill="#ce7c29" d="M 23.113281 56.695312 L 26.550781 56.695312 L 26.550781 57.480469 L 23.113281 57.480469 Z M 23.113281 56.695312 " fill-opacity="1" fill-rule="evenodd"/><g fill="#488ce4" fill-opacity="1"><g transform="translate(52.931417, 40.992807)"><g><path d="M 4.65625 -8.359375 C 5.414062 -8.359375 6.070312 -8.234375 6.625 -7.984375 C 7.1875 -7.734375 7.617188 -7.375 7.921875 -6.90625 C 8.222656 -6.445312 8.375 -5.898438 8.375 -5.265625 C 8.375 -4.640625 8.222656 -4.09375 7.921875 -3.625 C 7.617188 -3.164062 7.1875 -2.8125 6.625 -2.5625 C 6.070312 -2.3125 5.414062 -2.1875 4.65625 -2.1875 L 3.203125 -2.1875 L 3.203125 0 L 0.84375 0 L 0.84375 -8.359375 Z M 4.515625 -4.046875 C 5.003906 -4.046875 5.367188 -4.148438 5.609375 -4.359375 C 5.859375 -4.578125 5.984375 -4.878906 5.984375 -5.265625 C 5.984375 -5.660156 5.859375 -5.960938 5.609375 -6.171875 C 5.367188 -6.390625 5.003906 -6.5 4.515625 -6.5 L 3.203125 -6.5 L 3.203125 -4.046875 Z M 4.515625 -4.046875 "/></g></g></g><g fill="#488ce4" fill-opacity="1"><g transform="translate(61.7363, 40.992807)"><g><path d="M 4.5 -2.21875 L 3.203125 -2.21875 L 3.203125 0 L 0.84375 0 L 0.84375 -8.359375 L 4.65625 -8.359375 C 5.414062 -8.359375 6.070312 -8.234375 6.625 -7.984375 C 7.1875 -7.734375 7.617188 -7.375 7.921875 -6.90625 C 8.222656 -6.445312 8.375 -5.898438 8.375 -5.265625 C 8.375 -4.660156 8.234375 -4.132812 7.953125 -3.6875 C 7.671875 -3.238281 7.265625 -2.882812 6.734375 -2.625 L 8.546875 0 L 6.015625 0 Z M 5.984375 -5.265625 C 5.984375 -5.660156 5.859375 -5.960938 5.609375 -6.171875 C 5.367188 -6.390625 5.003906 -6.5 4.515625 -6.5 L 3.203125 -6.5 L 3.203125 -4.046875 L 4.515625 -4.046875 C 5.003906 -4.046875 5.367188 -4.148438 5.609375 -4.359375 C 5.859375 -4.578125 5.984375 -4.878906 5.984375 -5.265625 Z M 5.984375 -5.265625 "/></g></g></g><g fill="#488ce4" fill-opacity="1"><g transform="translate(70.577028, 40.992807)"><g><path d="M 5.0625 0.171875 C 4.175781 0.171875 3.378906 -0.015625 2.671875 -0.390625 C 1.960938 -0.765625 1.40625 -1.28125 1 -1.9375 C 0.601562 -2.601562 0.40625 -3.351562 0.40625 -4.1875 C 0.40625 -5.007812 0.601562 -5.75 1 -6.40625 C 1.40625 -7.070312 1.960938 -7.59375 2.671875 -7.96875 C 3.378906 -8.34375 4.175781 -8.53125 5.0625 -8.53125 C 5.945312 -8.53125 6.738281 -8.34375 7.4375 -7.96875 C 8.144531 -7.59375 8.695312 -7.070312 9.09375 -6.40625 C 9.5 -5.75 9.703125 -5.007812 9.703125 -4.1875 C 9.703125 -3.351562 9.5 -2.601562 9.09375 -1.9375 C 8.695312 -1.28125 8.144531 -0.765625 7.4375 -0.390625 C 6.738281 -0.015625 5.945312 0.171875 5.0625 0.171875 Z M 5.0625 -1.796875 C 5.476562 -1.796875 5.859375 -1.894531 6.203125 -2.09375 C 6.546875 -2.289062 6.816406 -2.570312 7.015625 -2.9375 C 7.210938 -3.300781 7.3125 -3.71875 7.3125 -4.1875 C 7.3125 -4.65625 7.210938 -5.066406 7.015625 -5.421875 C 6.816406 -5.785156 6.546875 -6.066406 6.203125 -6.265625 C 5.859375 -6.472656 5.476562 -6.578125 5.0625 -6.578125 C 4.632812 -6.578125 4.25 -6.472656 3.90625 -6.265625 C 3.5625 -6.066406 3.289062 -5.785156 3.09375 -5.421875 C 2.894531 -5.066406 2.796875 -4.65625 2.796875 -4.1875 C 2.796875 -3.71875 2.894531 -3.300781 3.09375 -2.9375 C 3.289062 -2.570312 3.5625 -2.289062 3.90625 -2.09375 C 4.25 -1.894531 4.632812 -1.796875 5.0625 -1.796875 Z M 5.0625 -1.796875 "/></g></g></g><g fill="#488ce4" fill-opacity="1"><g transform="translate(80.684126, 40.992807)"><g><path d="M 3.203125 -6.53125 L 3.203125 -4.703125 L 6.890625 -4.703125 L 6.890625 -2.875 L 3.203125 -2.875 L 3.203125 0 L 0.84375 0 L 0.84375 -8.359375 L 7.40625 -8.359375 L 7.40625 -6.53125 Z M 3.203125 -6.53125 "/></g></g></g><g fill="#488ce4" fill-opacity="1"><g transform="translate(88.354051, 40.992807)"><g><path d="M 7.546875 -1.828125 L 7.546875 0 L 0.84375 0 L 0.84375 -8.359375 L 7.40625 -8.359375 L 7.40625 -6.53125 L 3.171875 -6.53125 L 3.171875 -5.125 L 6.890625 -5.125 L 6.890625 -3.359375 L 3.171875 -3.359375 L 3.171875 -1.828125 Z M 7.546875 -1.828125 "/></g></g></g><g fill="#488ce4" fill-opacity="1"><g transform="translate(96.382391, 40.992807)"><g><path d="M 3.78125 0.171875 C 3.101562 0.171875 2.441406 0.0859375 1.796875 -0.078125 C 1.160156 -0.242188 0.644531 -0.46875 0.25 -0.75 L 1.03125 -2.5 C 1.40625 -2.25 1.835938 -2.046875 2.328125 -1.890625 C 2.828125 -1.742188 3.316406 -1.671875 3.796875 -1.671875 C 4.703125 -1.671875 5.15625 -1.898438 5.15625 -2.359375 C 5.15625 -2.597656 5.023438 -2.773438 4.765625 -2.890625 C 4.503906 -3.003906 4.085938 -3.125 3.515625 -3.25 C 2.878906 -3.382812 2.347656 -3.53125 1.921875 -3.6875 C 1.503906 -3.84375 1.144531 -4.09375 0.84375 -4.4375 C 0.539062 -4.78125 0.390625 -5.242188 0.390625 -5.828125 C 0.390625 -6.335938 0.53125 -6.796875 0.8125 -7.203125 C 1.09375 -7.609375 1.507812 -7.929688 2.0625 -8.171875 C 2.613281 -8.410156 3.289062 -8.53125 4.09375 -8.53125 C 4.644531 -8.53125 5.1875 -8.46875 5.71875 -8.34375 C 6.257812 -8.21875 6.734375 -8.039062 7.140625 -7.8125 L 6.40625 -6.046875 C 5.613281 -6.472656 4.84375 -6.6875 4.09375 -6.6875 C 3.613281 -6.6875 3.265625 -6.617188 3.046875 -6.484375 C 2.835938 -6.347656 2.734375 -6.164062 2.734375 -5.9375 C 2.734375 -5.71875 2.859375 -5.550781 3.109375 -5.4375 C 3.367188 -5.320312 3.78125 -5.207031 4.34375 -5.09375 C 4.988281 -4.957031 5.519531 -4.8125 5.9375 -4.65625 C 6.351562 -4.5 6.710938 -4.25 7.015625 -3.90625 C 7.328125 -3.570312 7.484375 -3.113281 7.484375 -2.53125 C 7.484375 -2.03125 7.34375 -1.578125 7.0625 -1.171875 C 6.78125 -0.765625 6.359375 -0.4375 5.796875 -0.1875 C 5.242188 0.0507812 4.570312 0.171875 3.78125 0.171875 Z M 3.78125 0.171875 "/></g></g></g><g fill="#488ce4" fill-opacity="1"><g transform="translate(104.112051, 40.992807)"><g><path d="M 3.78125 0.171875 C 3.101562 0.171875 2.441406 0.0859375 1.796875 -0.078125 C 1.160156 -0.242188 0.644531 -0.46875 0.25 -0.75 L 1.03125 -2.5 C 1.40625 -2.25 1.835938 -2.046875 2.328125 -1.890625 C 2.828125 -1.742188 3.316406 -1.671875 3.796875 -1.671875 C 4.703125 -1.671875 5.15625 -1.898438 5.15625 -2.359375 C 5.15625 -2.597656 5.023438 -2.773438 4.765625 -2.890625 C 4.503906 -3.003906 4.085938 -3.125 3.515625 -3.25 C 2.878906 -3.382812 2.347656 -3.53125 1.921875 -3.6875 C 1.503906 -3.84375 1.144531 -4.09375 0.84375 -4.4375 C 0.539062 -4.78125 0.390625 -5.242188 0.390625 -5.828125 C 0.390625 -6.335938 0.53125 -6.796875 0.8125 -7.203125 C 1.09375 -7.609375 1.507812 -7.929688 2.0625 -8.171875 C 2.613281 -8.410156 3.289062 -8.53125 4.09375 -8.53125 C 4.644531 -8.53125 5.1875 -8.46875 5.71875 -8.34375 C 6.257812 -8.21875 6.734375 -8.039062 7.140625 -7.8125 L 6.40625 -6.046875 C 5.613281 -6.472656 4.84375 -6.6875 4.09375 -6.6875 C 3.613281 -6.6875 3.265625 -6.617188 3.046875 -6.484375 C 2.835938 -6.347656 2.734375 -6.164062 2.734375 -5.9375 C 2.734375 -5.71875 2.859375 -5.550781 3.109375 -5.4375 C 3.367188 -5.320312 3.78125 -5.207031 4.34375 -5.09375 C 4.988281 -4.957031 5.519531 -4.8125 5.9375 -4.65625 C 6.351562 -4.5 6.710938 -4.25 7.015625 -3.90625 C 7.328125 -3.570312 7.484375 -3.113281 7.484375 -2.53125 C 7.484375 -2.03125 7.34375 -1.578125 7.0625 -1.171875 C 6.78125 -0.765625 6.359375 -0.4375 5.796875 -0.1875 C 5.242188 0.0507812 4.570312 0.171875 3.78125 0.171875 Z M 3.78125 0.171875 "/></g></g></g><g fill="#488ce4" fill-opacity="1"><g transform="translate(111.841712, 40.992807)"><g><path d="M 0.84375 -8.359375 L 3.203125 -8.359375 L 3.203125 0 L 0.84375 0 Z M 0.84375 -8.359375 "/></g></g></g><g fill="#488ce4" fill-opacity="1"><g transform="translate(115.89172, 40.992807)"><g><path d="M 5.0625 0.171875 C 4.175781 0.171875 3.378906 -0.015625 2.671875 -0.390625 C 1.960938 -0.765625 1.40625 -1.28125 1 -1.9375 C 0.601562 -2.601562 0.40625 -3.351562 0.40625 -4.1875 C 0.40625 -5.007812 0.601562 -5.75 1 -6.40625 C 1.40625 -7.070312 1.960938 -7.59375 2.671875 -7.96875 C 3.378906 -8.34375 4.175781 -8.53125 5.0625 -8.53125 C 5.945312 -8.53125 6.738281 -8.34375 7.4375 -7.96875 C 8.144531 -7.59375 8.695312 -7.070312 9.09375 -6.40625 C 9.5 -5.75 9.703125 -5.007812 9.703125 -4.1875 C 9.703125 -3.351562 9.5 -2.601562 9.09375 -1.9375 C 8.695312 -1.28125 8.144531 -0.765625 7.4375 -0.390625 C 6.738281 -0.015625 5.945312 0.171875 5.0625 0.171875 Z M 5.0625 -1.796875 C 5.476562 -1.796875 5.859375 -1.894531 6.203125 -2.09375 C 6.546875 -2.289062 6.816406 -2.570312 7.015625 -2.9375 C 7.210938 -3.300781 7.3125 -3.71875 7.3125 -4.1875 C 7.3125 -4.65625 7.210938 -5.066406 7.015625 -5.421875 C 6.816406 -5.785156 6.546875 -6.066406 6.203125 -6.265625 C 5.859375 -6.472656 5.476562 -6.578125 5.0625 -6.578125 C 4.632812 -6.578125 4.25 -6.472656 3.90625 -6.265625 C 3.5625 -6.066406 3.289062 -5.785156 3.09375 -5.421875 C 2.894531 -5.066406 2.796875 -4.65625 2.796875 -4.1875 C 2.796875 -3.71875 2.894531 -3.300781 3.09375 -2.9375 C 3.289062 -2.570312 3.5625 -2.289062 3.90625 -2.09375 C 4.25 -1.894531 4.632812 -1.796875 5.0625 -1.796875 Z M 5.0625 -1.796875 "/></g></g></g><g fill="#488ce4" fill-opacity="1"><g transform="translate(125.998818, 40.992807)"><g><path d="M 8.796875 -8.359375 L 8.796875 0 L 6.84375 0 L 3.15625 -4.453125 L 3.15625 0 L 0.84375 0 L 0.84375 -8.359375 L 2.78125 -8.359375 L 6.484375 -3.90625 L 6.484375 -8.359375 Z M 8.796875 -8.359375 "/></g></g></g><g fill="#488ce4" fill-opacity="1"><g transform="translate(135.628041, 40.992807)"><g><path d="M 6.4375 -1.625 L 2.90625 -1.625 L 2.25 0 L -0.171875 0 L 3.53125 -8.359375 L 5.859375 -8.359375 L 9.5625 0 L 7.09375 0 Z M 5.75 -3.375 L 4.671875 -6.046875 L 3.59375 -3.375 Z M 5.75 -3.375 "/></g></g></g><g fill="#488ce4" fill-opacity="1"><g transform="translate(145.01832, 40.992807)"><g><path d="M 0.84375 -8.359375 L 3.203125 -8.359375 L 3.203125 -1.875 L 7.203125 -1.875 L 7.203125 0 L 0.84375 0 Z M 0.84375 -8.359375 "/></g></g></g><g fill="#488ce4" fill-opacity="1"><g transform="translate(152.305949, 40.992807)"><g/></g></g><g fill="#488ce4" fill-opacity="1"><g transform="translate(155.782502, 40.992807)"><g><path d="M 0.84375 -8.359375 L 4.796875 -8.359375 C 5.710938 -8.359375 6.523438 -8.1875 7.234375 -7.84375 C 7.941406 -7.507812 8.488281 -7.023438 8.875 -6.390625 C 9.269531 -5.765625 9.46875 -5.03125 9.46875 -4.1875 C 9.46875 -3.34375 9.269531 -2.601562 8.875 -1.96875 C 8.488281 -1.34375 7.941406 -0.859375 7.234375 -0.515625 C 6.523438 -0.171875 5.710938 0 4.796875 0 L 0.84375 0 Z M 4.703125 -1.890625 C 5.410156 -1.890625 5.984375 -2.09375 6.421875 -2.5 C 6.859375 -2.90625 7.078125 -3.46875 7.078125 -4.1875 C 7.078125 -4.90625 6.859375 -5.46875 6.421875 -5.875 C 5.984375 -6.28125 5.410156 -6.484375 4.703125 -6.484375 L 3.203125 -6.484375 L 3.203125 -1.890625 Z M 4.703125 -1.890625 "/></g></g></g><g fill="#488ce4" fill-opacity="1"><g transform="translate(165.650668, 40.992807)"><g><path d="M 7.546875 -1.828125 L 7.546875 0 L 0.84375 0 L 0.84375 -8.359375 L 7.40625 -8.359375 L 7.40625 -6.53125 L 3.171875 -6.53125 L 3.171875 -5.125 L 6.890625 -5.125 L 6.890625 -3.359375 L 3.171875 -3.359375 L 3.171875 -1.828125 Z M 7.546875 -1.828125 "/></g></g></g><g fill="#488ce4" fill-opacity="1"><g transform="translate(173.679008, 40.992807)"><g><path d="M 9.328125 -8.359375 L 5.734375 0 L 3.40625 0 L -0.171875 -8.359375 L 2.390625 -8.359375 L 4.65625 -2.921875 L 6.984375 -8.359375 Z M 9.328125 -8.359375 "/></g></g></g><g fill="#488ce4" fill-opacity="1"><g transform="translate(182.830355, 40.992807)"><g><path d="M 7.546875 -1.828125 L 7.546875 0 L 0.84375 0 L 0.84375 -8.359375 L 7.40625 -8.359375 L 7.40625 -6.53125 L 3.171875 -6.53125 L 3.171875 -5.125 L 6.890625 -5.125 L 6.890625 -3.359375 L 3.171875 -3.359375 L 3.171875 -1.828125 Z M 7.546875 -1.828125 "/></g></g></g><g fill="#488ce4" fill-opacity="1"><g transform="translate(190.858695, 40.992807)"><g><path d="M 0.84375 -8.359375 L 3.203125 -8.359375 L 3.203125 -1.875 L 7.203125 -1.875 L 7.203125 0 L 0.84375 0 Z M 0.84375 -8.359375 "/></g></g></g><g fill="#488ce4" fill-opacity="1"><g transform="translate(198.146324, 40.992807)"><g><path d="M 5.0625 0.171875 C 4.175781 0.171875 3.378906 -0.015625 2.671875 -0.390625 C 1.960938 -0.765625 1.40625 -1.28125 1 -1.9375 C 0.601562 -2.601562 0.40625 -3.351562 0.40625 -4.1875 C 0.40625 -5.007812 0.601562 -5.75 1 -6.40625 C 1.40625 -7.070312 1.960938 -7.59375 2.671875 -7.96875 C 3.378906 -8.34375 4.175781 -8.53125 5.0625 -8.53125 C 5.945312 -8.53125 6.738281 -8.34375 7.4375 -7.96875 C 8.144531 -7.59375 8.695312 -7.070312 9.09375 -6.40625 C 9.5 -5.75 9.703125 -5.007812 9.703125 -4.1875 C 9.703125 -3.351562 9.5 -2.601562 9.09375 -1.9375 C 8.695312 -1.28125 8.144531 -0.765625 7.4375 -0.390625 C 6.738281 -0.015625 5.945312 0.171875 5.0625 0.171875 Z M 5.0625 -1.796875 C 5.476562 -1.796875 5.859375 -1.894531 6.203125 -2.09375 C 6.546875 -2.289062 6.816406 -2.570312 7.015625 -2.9375 C 7.210938 -3.300781 7.3125 -3.71875 7.3125 -4.1875 C 7.3125 -4.65625 7.210938 -5.066406 7.015625 -5.421875 C 6.816406 -5.785156 6.546875 -6.066406 6.203125 -6.265625 C 5.859375 -6.472656 5.476562 -6.578125 5.0625 -6.578125 C 4.632812 -6.578125 4.25 -6.472656 3.90625 -6.265625 C 3.5625 -6.066406 3.289062 -5.785156 3.09375 -5.421875 C 2.894531 -5.066406 2.796875 -4.65625 2.796875 -4.1875 C 2.796875 -3.71875 2.894531 -3.300781 3.09375 -2.9375 C 3.289062 -2.570312 3.5625 -2.289062 3.90625 -2.09375 C 4.25 -1.894531 4.632812 -1.796875 5.0625 -1.796875 Z M 5.0625 -1.796875 "/></g></g></g><g fill="#488ce4" fill-opacity="1"><g transform="translate(208.253422, 40.992807)"><g><path d="M 4.65625 -8.359375 C 5.414062 -8.359375 6.070312 -8.234375 6.625 -7.984375 C 7.1875 -7.734375 7.617188 -7.375 7.921875 -6.90625 C 8.222656 -6.445312 8.375 -5.898438 8.375 -5.265625 C 8.375 -4.640625 8.222656 -4.09375 7.921875 -3.625 C 7.617188 -3.164062 7.1875 -2.8125 6.625 -2.5625 C 6.070312 -2.3125 5.414062 -2.1875 4.65625 -2.1875 L 3.203125 -2.1875 L 3.203125 0 L 0.84375 0 L 0.84375 -8.359375 Z M 4.515625 -4.046875 C 5.003906 -4.046875 5.367188 -4.148438 5.609375 -4.359375 C 5.859375 -4.578125 5.984375 -4.878906 5.984375 -5.265625 C 5.984375 -5.660156 5.859375 -5.960938 5.609375 -6.171875 C 5.367188 -6.390625 5.003906 -6.5 4.515625 -6.5 L 3.203125 -6.5 L 3.203125 -4.046875 Z M 4.515625 -4.046875 "/></g></g></g><g fill="#488ce4" fill-opacity="1"><g transform="translate(217.058306, 40.992807)"><g><path d="M 8.390625 0 L 8.359375 -4.4375 L 6.21875 -0.828125 L 5.15625 -0.828125 L 3.03125 -4.3125 L 3.03125 0 L 0.84375 0 L 0.84375 -8.359375 L 2.78125 -8.359375 L 5.71875 -3.53125 L 8.59375 -8.359375 L 10.546875 -8.359375 L 10.5625 0 Z M 8.390625 0 "/></g></g></g><g fill="#488ce4" fill-opacity="1"><g transform="translate(228.455679, 40.992807)"><g><path d="M 7.546875 -1.828125 L 7.546875 0 L 0.84375 0 L 0.84375 -8.359375 L 7.40625 -8.359375 L 7.40625 -6.53125 L 3.171875 -6.53125 L 3.171875 -5.125 L 6.890625 -5.125 L 6.890625 -3.359375 L 3.171875 -3.359375 L 3.171875 -1.828125 Z M 7.546875 -1.828125 "/></g></g></g><g fill="#488ce4" fill-opacity="1"><g transform="translate(236.484018, 40.992807)"><g><path d="M 8.796875 -8.359375 L 8.796875 0 L 6.84375 0 L 3.15625 -4.453125 L 3.15625 0 L 0.84375 0 L 0.84375 -8.359375 L 2.78125 -8.359375 L 6.484375 -3.90625 L 6.484375 -8.359375 Z M 8.796875 -8.359375 "/></g></g></g><g fill="#488ce4" fill-opacity="1"><g transform="translate(246.113253, 40.992807)"><g><path d="M 2.625 -6.484375 L 0.046875 -6.484375 L 0.046875 -8.359375 L 7.546875 -8.359375 L 7.546875 -6.484375 L 4.984375 -6.484375 L 4.984375 0 L 2.625 0 Z M 2.625 -6.484375 "/></g></g></g><g fill="#000000" fill-opacity="1"><g transform="translate(52.931417, 59.410946)"><g><path d="M 4.578125 0.0625 C 3.816406 0.0625 3.128906 -0.101562 2.515625 -0.4375 C 1.910156 -0.769531 1.429688 -1.234375 1.078125 -1.828125 C 0.734375 -2.429688 0.5625 -3.097656 0.5625 -3.828125 C 0.5625 -4.566406 0.734375 -5.234375 1.078125 -5.828125 C 1.429688 -6.421875 1.914062 -6.882812 2.53125 -7.21875 C 3.144531 -7.5625 3.832031 -7.734375 4.59375 -7.734375 C 5.15625 -7.734375 5.675781 -7.632812 6.15625 -7.4375 C 6.644531 -7.25 7.054688 -6.972656 7.390625 -6.609375 L 6.875 -6.09375 C 6.28125 -6.707031 5.523438 -7.015625 4.609375 -7.015625 C 4.003906 -7.015625 3.453125 -6.875 2.953125 -6.59375 C 2.460938 -6.3125 2.078125 -5.929688 1.796875 -5.453125 C 1.515625 -4.972656 1.375 -4.429688 1.375 -3.828125 C 1.375 -3.234375 1.515625 -2.691406 1.796875 -2.203125 C 2.078125 -1.722656 2.460938 -1.34375 2.953125 -1.0625 C 3.453125 -0.789062 4.003906 -0.65625 4.609375 -0.65625 C 5.523438 -0.65625 6.28125 -0.960938 6.875 -1.578125 L 7.390625 -1.0625 C 7.054688 -0.695312 6.644531 -0.414062 6.15625 -0.21875 C 5.675781 -0.03125 5.148438 0.0625 4.578125 0.0625 Z M 4.578125 0.0625 "/></g></g></g><g fill="#000000" fill-opacity="1"><g transform="translate(60.799861, 59.410946)"><g><path d="M 3.09375 -5.8125 C 3.851562 -5.8125 4.429688 -5.617188 4.828125 -5.234375 C 5.234375 -4.859375 5.4375 -4.304688 5.4375 -3.578125 L 5.4375 0 L 4.6875 0 L 4.6875 -0.890625 C 4.507812 -0.597656 4.25 -0.363281 3.90625 -0.1875 C 3.570312 -0.0195312 3.171875 0.0625 2.703125 0.0625 C 2.054688 0.0625 1.546875 -0.0859375 1.171875 -0.390625 C 0.796875 -0.703125 0.609375 -1.113281 0.609375 -1.625 C 0.609375 -2.113281 0.785156 -2.503906 1.140625 -2.796875 C 1.492188 -3.097656 2.054688 -3.25 2.828125 -3.25 L 4.65625 -3.25 L 4.65625 -3.609375 C 4.65625 -4.097656 4.515625 -4.472656 4.234375 -4.734375 C 3.960938 -4.992188 3.554688 -5.125 3.015625 -5.125 C 2.648438 -5.125 2.300781 -5.0625 1.96875 -4.9375 C 1.632812 -4.820312 1.347656 -4.660156 1.109375 -4.453125 L 0.75 -5.03125 C 1.039062 -5.28125 1.390625 -5.472656 1.796875 -5.609375 C 2.210938 -5.742188 2.644531 -5.8125 3.09375 -5.8125 Z M 2.828125 -0.5625 C 3.265625 -0.5625 3.640625 -0.660156 3.953125 -0.859375 C 4.265625 -1.054688 4.5 -1.347656 4.65625 -1.734375 L 4.65625 -2.671875 L 2.84375 -2.671875 C 1.863281 -2.671875 1.375 -2.328125 1.375 -1.640625 C 1.375 -1.304688 1.5 -1.039062 1.75 -0.84375 C 2.007812 -0.65625 2.367188 -0.5625 2.828125 -0.5625 Z M 2.828125 -0.5625 "/></g></g></g><g fill="#000000" fill-opacity="1"><g transform="translate(67.256576, 59.410946)"><g><path d="M 1.828125 -4.640625 C 2.015625 -5.023438 2.285156 -5.316406 2.640625 -5.515625 C 3.003906 -5.710938 3.453125 -5.8125 3.984375 -5.8125 L 3.984375 -5.046875 L 3.796875 -5.0625 C 3.191406 -5.0625 2.71875 -4.875 2.375 -4.5 C 2.03125 -4.125 1.859375 -3.601562 1.859375 -2.9375 L 1.859375 0 L 1.078125 0 L 1.078125 -5.765625 L 1.828125 -5.765625 Z M 1.828125 -4.640625 "/></g></g></g><g fill="#000000" fill-opacity="1"><g transform="translate(71.644959, 59.410946)"><g><path d="M 6.09375 -2.640625 L 1.28125 -2.640625 C 1.320312 -2.035156 1.550781 -1.550781 1.96875 -1.1875 C 2.382812 -0.820312 2.910156 -0.640625 3.546875 -0.640625 C 3.898438 -0.640625 4.226562 -0.703125 4.53125 -0.828125 C 4.832031 -0.953125 5.09375 -1.140625 5.3125 -1.390625 L 5.75 -0.890625 C 5.488281 -0.578125 5.164062 -0.335938 4.78125 -0.171875 C 4.40625 -0.015625 3.988281 0.0625 3.53125 0.0625 C 2.9375 0.0625 2.410156 -0.0625 1.953125 -0.3125 C 1.492188 -0.570312 1.132812 -0.921875 0.875 -1.359375 C 0.625 -1.804688 0.5 -2.3125 0.5 -2.875 C 0.5 -3.4375 0.617188 -3.941406 0.859375 -4.390625 C 1.109375 -4.835938 1.445312 -5.1875 1.875 -5.4375 C 2.300781 -5.6875 2.78125 -5.8125 3.3125 -5.8125 C 3.851562 -5.8125 4.332031 -5.6875 4.75 -5.4375 C 5.175781 -5.1875 5.507812 -4.835938 5.75 -4.390625 C 5.988281 -3.953125 6.109375 -3.445312 6.109375 -2.875 Z M 3.3125 -5.140625 C 2.757812 -5.140625 2.296875 -4.960938 1.921875 -4.609375 C 1.546875 -4.253906 1.332031 -3.789062 1.28125 -3.21875 L 5.359375 -3.21875 C 5.316406 -3.789062 5.101562 -4.253906 4.71875 -4.609375 C 4.34375 -4.960938 3.875 -5.140625 3.3125 -5.140625 Z M 3.3125 -5.140625 "/></g></g></g><g fill="#000000" fill-opacity="1"><g transform="translate(78.254882, 59.410946)"><g><path d="M 6.09375 -2.640625 L 1.28125 -2.640625 C 1.320312 -2.035156 1.550781 -1.550781 1.96875 -1.1875 C 2.382812 -0.820312 2.910156 -0.640625 3.546875 -0.640625 C 3.898438 -0.640625 4.226562 -0.703125 4.53125 -0.828125 C 4.832031 -0.953125 5.09375 -1.140625 5.3125 -1.390625 L 5.75 -0.890625 C 5.488281 -0.578125 5.164062 -0.335938 4.78125 -0.171875 C 4.40625 -0.015625 3.988281 0.0625 3.53125 0.0625 C 2.9375 0.0625 2.410156 -0.0625 1.953125 -0.3125 C 1.492188 -0.570312 1.132812 -0.921875 0.875 -1.359375 C 0.625 -1.804688 0.5 -2.3125 0.5 -2.875 C 0.5 -3.4375 0.617188 -3.941406 0.859375 -4.390625 C 1.109375 -4.835938 1.445312 -5.1875 1.875 -5.4375 C 2.300781 -5.6875 2.78125 -5.8125 3.3125 -5.8125 C 3.851562 -5.8125 4.332031 -5.6875 4.75 -5.4375 C 5.175781 -5.1875 5.507812 -4.835938 5.75 -4.390625 C 5.988281 -3.953125 6.109375 -3.445312 6.109375 -2.875 Z M 3.3125 -5.140625 C 2.757812 -5.140625 2.296875 -4.960938 1.921875 -4.609375 C 1.546875 -4.253906 1.332031 -3.789062 1.28125 -3.21875 L 5.359375 -3.21875 C 5.316406 -3.789062 5.101562 -4.253906 4.71875 -4.609375 C 4.34375 -4.960938 3.875 -5.140625 3.3125 -5.140625 Z M 3.3125 -5.140625 "/></g></g></g><g fill="#000000" fill-opacity="1"><g transform="translate(84.864805, 59.410946)"><g><path d="M 1.828125 -4.640625 C 2.015625 -5.023438 2.285156 -5.316406 2.640625 -5.515625 C 3.003906 -5.710938 3.453125 -5.8125 3.984375 -5.8125 L 3.984375 -5.046875 L 3.796875 -5.0625 C 3.191406 -5.0625 2.71875 -4.875 2.375 -4.5 C 2.03125 -4.125 1.859375 -3.601562 1.859375 -2.9375 L 1.859375 0 L 1.078125 0 L 1.078125 -5.765625 L 1.828125 -5.765625 Z M 1.828125 -4.640625 "/></g></g></g><g fill="#000000" fill-opacity="1"><g transform="translate(89.253188, 59.410946)"><g/></g></g><g fill="#000000" fill-opacity="1"><g transform="translate(92.120407, 59.410946)"><g><path d="M 6.078125 -3.953125 C 6.578125 -3.847656 6.960938 -3.628906 7.234375 -3.296875 C 7.515625 -2.972656 7.65625 -2.554688 7.65625 -2.046875 C 7.65625 -1.390625 7.410156 -0.882812 6.921875 -0.53125 C 6.441406 -0.175781 5.726562 0 4.78125 0 L 1.25 0 L 1.25 -7.671875 L 4.5625 -7.671875 C 5.414062 -7.671875 6.078125 -7.5 6.546875 -7.15625 C 7.015625 -6.8125 7.25 -6.328125 7.25 -5.703125 C 7.25 -5.273438 7.144531 -4.910156 6.9375 -4.609375 C 6.726562 -4.316406 6.441406 -4.097656 6.078125 -3.953125 Z M 2.0625 -7 L 2.0625 -4.21875 L 4.5 -4.21875 C 5.125 -4.21875 5.601562 -4.332031 5.9375 -4.5625 C 6.269531 -4.800781 6.4375 -5.148438 6.4375 -5.609375 C 6.4375 -6.054688 6.269531 -6.398438 5.9375 -6.640625 C 5.601562 -6.878906 5.125 -7 4.5 -7 Z M 4.765625 -0.671875 C 5.453125 -0.671875 5.96875 -0.785156 6.3125 -1.015625 C 6.664062 -1.253906 6.84375 -1.617188 6.84375 -2.109375 C 6.84375 -3.066406 6.148438 -3.546875 4.765625 -3.546875 L 2.0625 -3.546875 L 2.0625 -0.671875 Z M 4.765625 -0.671875 "/></g></g></g><g fill="#000000" fill-opacity="1"><g transform="translate(100.371877, 59.410946)"><g><path d="M 1.828125 -4.640625 C 2.015625 -5.023438 2.285156 -5.316406 2.640625 -5.515625 C 3.003906 -5.710938 3.453125 -5.8125 3.984375 -5.8125 L 3.984375 -5.046875 L 3.796875 -5.0625 C 3.191406 -5.0625 2.71875 -4.875 2.375 -4.5 C 2.03125 -4.125 1.859375 -3.601562 1.859375 -2.9375 L 1.859375 0 L 1.078125 0 L 1.078125 -5.765625 L 1.828125 -5.765625 Z M 1.828125 -4.640625 "/></g></g></g><g fill="#000000" fill-opacity="1"><g transform="translate(104.760259, 59.410946)"><g><path d="M 6.09375 -2.640625 L 1.28125 -2.640625 C 1.320312 -2.035156 1.550781 -1.550781 1.96875 -1.1875 C 2.382812 -0.820312 2.910156 -0.640625 3.546875 -0.640625 C 3.898438 -0.640625 4.226562 -0.703125 4.53125 -0.828125 C 4.832031 -0.953125 5.09375 -1.140625 5.3125 -1.390625 L 5.75 -0.890625 C 5.488281 -0.578125 5.164062 -0.335938 4.78125 -0.171875 C 4.40625 -0.015625 3.988281 0.0625 3.53125 0.0625 C 2.9375 0.0625 2.410156 -0.0625 1.953125 -0.3125 C 1.492188 -0.570312 1.132812 -0.921875 0.875 -1.359375 C 0.625 -1.804688 0.5 -2.3125 0.5 -2.875 C 0.5 -3.4375 0.617188 -3.941406 0.859375 -4.390625 C 1.109375 -4.835938 1.445312 -5.1875 1.875 -5.4375 C 2.300781 -5.6875 2.78125 -5.8125 3.3125 -5.8125 C 3.851562 -5.8125 4.332031 -5.6875 4.75 -5.4375 C 5.175781 -5.1875 5.507812 -4.835938 5.75 -4.390625 C 5.988281 -3.953125 6.109375 -3.445312 6.109375 -2.875 Z M 3.3125 -5.140625 C 2.757812 -5.140625 2.296875 -4.960938 1.921875 -4.609375 C 1.546875 -4.253906 1.332031 -3.789062 1.28125 -3.21875 L 5.359375 -3.21875 C 5.316406 -3.789062 5.101562 -4.253906 4.71875 -4.609375 C 4.34375 -4.960938 3.875 -5.140625 3.3125 -5.140625 Z M 3.3125 -5.140625 "/></g></g></g><g fill="#000000" fill-opacity="1"><g transform="translate(111.370182, 59.410946)"><g><path d="M 3.09375 -5.8125 C 3.851562 -5.8125 4.429688 -5.617188 4.828125 -5.234375 C 5.234375 -4.859375 5.4375 -4.304688 5.4375 -3.578125 L 5.4375 0 L 4.6875 0 L 4.6875 -0.890625 C 4.507812 -0.597656 4.25 -0.363281 3.90625 -0.1875 C 3.570312 -0.0195312 3.171875 0.0625 2.703125 0.0625 C 2.054688 0.0625 1.546875 -0.0859375 1.171875 -0.390625 C 0.796875 -0.703125 0.609375 -1.113281 0.609375 -1.625 C 0.609375 -2.113281 0.785156 -2.503906 1.140625 -2.796875 C 1.492188 -3.097656 2.054688 -3.25 2.828125 -3.25 L 4.65625 -3.25 L 4.65625 -3.609375 C 4.65625 -4.097656 4.515625 -4.472656 4.234375 -4.734375 C 3.960938 -4.992188 3.554688 -5.125 3.015625 -5.125 C 2.648438 -5.125 2.300781 -5.0625 1.96875 -4.9375 C 1.632812 -4.820312 1.347656 -4.660156 1.109375 -4.453125 L 0.75 -5.03125 C 1.039062 -5.28125 1.390625 -5.472656 1.796875 -5.609375 C 2.210938 -5.742188 2.644531 -5.8125 3.09375 -5.8125 Z M 2.828125 -0.5625 C 3.265625 -0.5625 3.640625 -0.660156 3.953125 -0.859375 C 4.265625 -1.054688 4.5 -1.347656 4.65625 -1.734375 L 4.65625 -2.671875 L 2.84375 -2.671875 C 1.863281 -2.671875 1.375 -2.328125 1.375 -1.640625 C 1.375 -1.304688 1.5 -1.039062 1.75 -0.84375 C 2.007812 -0.65625 2.367188 -0.5625 2.828125 -0.5625 Z M 2.828125 -0.5625 "/></g></g></g><g fill="#000000" fill-opacity="1"><g transform="translate(117.826898, 59.410946)"><g><path d="M 3.21875 -2.890625 L 1.859375 -1.640625 L 1.859375 0 L 1.078125 0 L 1.078125 -8.125 L 1.859375 -8.125 L 1.859375 -2.625 L 5.296875 -5.765625 L 6.265625 -5.765625 L 3.796875 -3.40625 L 6.5 0 L 5.546875 0 Z M 3.21875 -2.890625 "/></g></g></g><g fill="#9f9f9f" fill-opacity="1"><g transform="translate(52.931417, 78.808099)"><g><path d="M 1.5 0.046875 C 1.1875 0.046875 0.894531 -0.0195312 0.625 -0.15625 C 0.351562 -0.289062 0.128906 -0.488281 -0.046875 -0.75 L 0.3125 -1.140625 C 0.613281 -0.691406 1.015625 -0.46875 1.515625 -0.46875 C 2.203125 -0.46875 2.546875 -0.875 2.546875 -1.6875 L 2.546875 -5.0625 L 0.515625 -5.0625 L 0.515625 -5.578125 L 3.125 -5.578125 L 3.125 -1.71875 C 3.125 -1.132812 2.988281 -0.691406 2.71875 -0.390625 C 2.445312 -0.0976562 2.039062 0.046875 1.5 0.046875 Z M 1.5 0.046875 "/></g></g></g><g fill="#9f9f9f" fill-opacity="1"><g transform="translate(56.921723, 78.808099)"><g><path d="M 4.5625 -4.1875 L 4.5625 0 L 4.03125 0 L 4.03125 -0.765625 C 3.875 -0.503906 3.664062 -0.300781 3.40625 -0.15625 C 3.144531 -0.0195312 2.847656 0.046875 2.515625 0.046875 C 1.972656 0.046875 1.539062 -0.101562 1.21875 -0.40625 C 0.90625 -0.71875 0.75 -1.171875 0.75 -1.765625 L 0.75 -4.1875 L 1.3125 -4.1875 L 1.3125 -1.8125 C 1.3125 -1.375 1.421875 -1.039062 1.640625 -0.8125 C 1.859375 -0.582031 2.171875 -0.46875 2.578125 -0.46875 C 3.015625 -0.46875 3.359375 -0.601562 3.609375 -0.875 C 3.867188 -1.144531 4 -1.515625 4 -1.984375 L 4 -4.1875 Z M 4.5625 -4.1875 "/></g></g></g><g fill="#9f9f9f" fill-opacity="1"><g transform="translate(62.281953, 78.808099)"><g><path d="M 2.921875 -4.21875 C 3.453125 -4.21875 3.867188 -4.066406 4.171875 -3.765625 C 4.484375 -3.460938 4.640625 -3.019531 4.640625 -2.4375 L 4.640625 0 L 4.078125 0 L 4.078125 -2.375 C 4.078125 -2.8125 3.96875 -3.144531 3.75 -3.375 C 3.53125 -3.601562 3.222656 -3.71875 2.828125 -3.71875 C 2.367188 -3.71875 2.007812 -3.582031 1.75 -3.3125 C 1.488281 -3.039062 1.359375 -2.671875 1.359375 -2.203125 L 1.359375 0 L 0.78125 0 L 0.78125 -4.1875 L 1.328125 -4.1875 L 1.328125 -3.421875 C 1.484375 -3.671875 1.695312 -3.863281 1.96875 -4 C 2.238281 -4.144531 2.554688 -4.21875 2.921875 -4.21875 Z M 2.921875 -4.21875 "/></g></g></g><g fill="#9f9f9f" fill-opacity="1"><g transform="translate(67.674045, 78.808099)"><g/></g></g><g fill="#9f9f9f" fill-opacity="1"><g transform="translate(69.760797, 78.808099)"><g><path d="M 4.21875 -0.515625 L 4.21875 0 L 0.3125 0 L 0.3125 -0.40625 L 2.625 -2.671875 C 2.914062 -2.960938 3.113281 -3.210938 3.21875 -3.421875 C 3.320312 -3.628906 3.375 -3.84375 3.375 -4.0625 C 3.375 -4.382812 3.257812 -4.632812 3.03125 -4.8125 C 2.8125 -5 2.492188 -5.09375 2.078125 -5.09375 C 1.421875 -5.09375 0.910156 -4.890625 0.546875 -4.484375 L 0.140625 -4.828125 C 0.359375 -5.085938 0.632812 -5.285156 0.96875 -5.421875 C 1.3125 -5.554688 1.695312 -5.625 2.125 -5.625 C 2.6875 -5.625 3.132812 -5.488281 3.46875 -5.21875 C 3.800781 -4.957031 3.96875 -4.59375 3.96875 -4.125 C 3.96875 -3.832031 3.898438 -3.550781 3.765625 -3.28125 C 3.640625 -3.019531 3.398438 -2.71875 3.046875 -2.375 L 1.15625 -0.515625 Z M 4.21875 -0.515625 "/></g></g></g><g fill="#9f9f9f" fill-opacity="1"><g transform="translate(74.284744, 78.808099)"><g><path d="M 2.640625 0.046875 C 2.203125 0.046875 1.816406 -0.0664062 1.484375 -0.296875 C 1.148438 -0.523438 0.890625 -0.851562 0.703125 -1.28125 C 0.515625 -1.707031 0.421875 -2.207031 0.421875 -2.78125 C 0.421875 -3.363281 0.515625 -3.867188 0.703125 -4.296875 C 0.890625 -4.722656 1.148438 -5.050781 1.484375 -5.28125 C 1.816406 -5.507812 2.203125 -5.625 2.640625 -5.625 C 3.066406 -5.625 3.445312 -5.507812 3.78125 -5.28125 C 4.125 -5.050781 4.390625 -4.722656 4.578125 -4.296875 C 4.773438 -3.867188 4.875 -3.363281 4.875 -2.78125 C 4.875 -2.207031 4.773438 -1.707031 4.578125 -1.28125 C 4.390625 -0.851562 4.125 -0.523438 3.78125 -0.296875 C 3.445312 -0.0664062 3.066406 0.046875 2.640625 0.046875 Z M 2.640625 -0.484375 C 2.960938 -0.484375 3.242188 -0.570312 3.484375 -0.75 C 3.734375 -0.925781 3.925781 -1.1875 4.0625 -1.53125 C 4.207031 -1.882812 4.28125 -2.300781 4.28125 -2.78125 C 4.28125 -3.269531 4.207031 -3.6875 4.0625 -4.03125 C 3.925781 -4.382812 3.734375 -4.648438 3.484375 -4.828125 C 3.242188 -5.003906 2.960938 -5.09375 2.640625 -5.09375 C 2.316406 -5.09375 2.03125 -5.003906 1.78125 -4.828125 C 1.53125 -4.648438 1.335938 -4.382812 1.203125 -4.03125 C 1.066406 -3.6875 1 -3.269531 1 -2.78125 C 1 -2.300781 1.066406 -1.882812 1.203125 -1.53125 C 1.335938 -1.1875 1.53125 -0.925781 1.78125 -0.75 C 2.03125 -0.570312 2.316406 -0.484375 2.640625 -0.484375 Z M 2.640625 -0.484375 "/></g></g></g><g fill="#9f9f9f" fill-opacity="1"><g transform="translate(79.557371, 78.808099)"><g><path d="M 4.21875 -0.515625 L 4.21875 0 L 0.3125 0 L 0.3125 -0.40625 L 2.625 -2.671875 C 2.914062 -2.960938 3.113281 -3.210938 3.21875 -3.421875 C 3.320312 -3.628906 3.375 -3.84375 3.375 -4.0625 C 3.375 -4.382812 3.257812 -4.632812 3.03125 -4.8125 C 2.8125 -5 2.492188 -5.09375 2.078125 -5.09375 C 1.421875 -5.09375 0.910156 -4.890625 0.546875 -4.484375 L 0.140625 -4.828125 C 0.359375 -5.085938 0.632812 -5.285156 0.96875 -5.421875 C 1.3125 -5.554688 1.695312 -5.625 2.125 -5.625 C 2.6875 -5.625 3.132812 -5.488281 3.46875 -5.21875 C 3.800781 -4.957031 3.96875 -4.59375 3.96875 -4.125 C 3.96875 -3.832031 3.898438 -3.550781 3.765625 -3.28125 C 3.640625 -3.019531 3.398438 -2.71875 3.046875 -2.375 L 1.15625 -0.515625 Z M 4.21875 -0.515625 "/></g></g></g><g fill="#9f9f9f" fill-opacity="1"><g transform="translate(84.081318, 78.808099)"><g><path d="M 5.15625 -1.46875 L 4.046875 -1.46875 L 4.046875 0 L 3.46875 0 L 3.46875 -1.46875 L 0.3125 -1.46875 L 0.3125 -1.875 L 3.28125 -5.578125 L 3.90625 -5.578125 L 1.0625 -1.96875 L 3.484375 -1.96875 L 3.484375 -3.265625 L 4.046875 -3.265625 L 4.046875 -1.96875 L 5.15625 -1.96875 Z M 5.15625 -1.46875 "/></g></g></g><g fill="#9f9f9f" fill-opacity="1"><g transform="translate(89.345975, 78.808099)"><g/></g></g><g fill="#9f9f9f" fill-opacity="1"><g transform="translate(91.432727, 78.808099)"><g><path d="M 0.484375 -2.40625 L 2.5625 -2.40625 L 2.5625 -1.90625 L 0.484375 -1.90625 Z M 0.484375 -2.40625 "/></g></g></g><g fill="#9f9f9f" fill-opacity="1"><g transform="translate(94.475236, 78.808099)"><g/></g></g><g fill="#9f9f9f" fill-opacity="1"><g transform="translate(96.561988, 78.808099)"><g><path d="M 3 -5.578125 C 3.707031 -5.578125 4.265625 -5.40625 4.671875 -5.0625 C 5.078125 -4.726562 5.28125 -4.265625 5.28125 -3.671875 C 5.28125 -3.066406 5.078125 -2.597656 4.671875 -2.265625 C 4.265625 -1.929688 3.707031 -1.765625 3 -1.765625 L 1.5 -1.765625 L 1.5 0 L 0.90625 0 L 0.90625 -5.578125 Z M 2.984375 -2.28125 C 3.535156 -2.28125 3.957031 -2.398438 4.25 -2.640625 C 4.539062 -2.878906 4.6875 -3.222656 4.6875 -3.671875 C 4.6875 -4.117188 4.539062 -4.460938 4.25 -4.703125 C 3.957031 -4.941406 3.535156 -5.0625 2.984375 -5.0625 L 1.5 -5.0625 L 1.5 -2.28125 Z M 2.984375 -2.28125 "/></g></g></g><g fill="#9f9f9f" fill-opacity="1"><g transform="translate(102.280632, 78.808099)"><g><path d="M 1.328125 -3.375 C 1.460938 -3.65625 1.660156 -3.863281 1.921875 -4 C 2.179688 -4.144531 2.507812 -4.21875 2.90625 -4.21875 L 2.90625 -3.671875 L 2.765625 -3.6875 C 2.328125 -3.6875 1.984375 -3.550781 1.734375 -3.28125 C 1.484375 -3.007812 1.359375 -2.628906 1.359375 -2.140625 L 1.359375 0 L 0.78125 0 L 0.78125 -4.1875 L 1.328125 -4.1875 Z M 1.328125 -3.375 "/></g></g></g><g fill="#9f9f9f" fill-opacity="1"><g transform="translate(105.474467, 78.808099)"><g><path d="M 4.4375 -1.921875 L 0.9375 -1.921875 C 0.96875 -1.484375 1.132812 -1.128906 1.4375 -0.859375 C 1.738281 -0.597656 2.117188 -0.46875 2.578125 -0.46875 C 2.835938 -0.46875 3.078125 -0.507812 3.296875 -0.59375 C 3.515625 -0.6875 3.703125 -0.828125 3.859375 -1.015625 L 4.1875 -0.640625 C 4 -0.421875 3.765625 -0.25 3.484375 -0.125 C 3.203125 -0.0078125 2.894531 0.046875 2.5625 0.046875 C 2.132812 0.046875 1.753906 -0.046875 1.421875 -0.234375 C 1.085938 -0.421875 0.828125 -0.675781 0.640625 -1 C 0.453125 -1.320312 0.359375 -1.6875 0.359375 -2.09375 C 0.359375 -2.5 0.445312 -2.863281 0.625 -3.1875 C 0.8125 -3.519531 1.054688 -3.773438 1.359375 -3.953125 C 1.671875 -4.128906 2.023438 -4.21875 2.421875 -4.21875 C 2.804688 -4.21875 3.148438 -4.128906 3.453125 -3.953125 C 3.765625 -3.773438 4.007812 -3.523438 4.1875 -3.203125 C 4.363281 -2.878906 4.453125 -2.507812 4.453125 -2.09375 Z M 2.421875 -3.734375 C 2.015625 -3.734375 1.671875 -3.601562 1.390625 -3.34375 C 1.117188 -3.09375 0.96875 -2.757812 0.9375 -2.34375 L 3.90625 -2.34375 C 3.863281 -2.757812 3.707031 -3.09375 3.4375 -3.34375 C 3.164062 -3.601562 2.828125 -3.734375 2.421875 -3.734375 Z M 2.421875 -3.734375 "/></g></g></g><g fill="#9f9f9f" fill-opacity="1"><g transform="translate(110.285136, 78.808099)"><g><path d="M 1.90625 0.046875 C 1.570312 0.046875 1.25 0 0.9375 -0.09375 C 0.625 -0.195312 0.378906 -0.328125 0.203125 -0.484375 L 0.46875 -0.921875 C 0.632812 -0.785156 0.847656 -0.671875 1.109375 -0.578125 C 1.378906 -0.492188 1.660156 -0.453125 1.953125 -0.453125 C 2.335938 -0.453125 2.617188 -0.507812 2.796875 -0.625 C 2.984375 -0.75 3.078125 -0.921875 3.078125 -1.140625 C 3.078125 -1.296875 3.023438 -1.414062 2.921875 -1.5 C 2.816406 -1.59375 2.6875 -1.660156 2.53125 -1.703125 C 2.382812 -1.742188 2.179688 -1.785156 1.921875 -1.828125 C 1.585938 -1.890625 1.316406 -1.953125 1.109375 -2.015625 C 0.898438 -2.085938 0.722656 -2.203125 0.578125 -2.359375 C 0.429688 -2.523438 0.359375 -2.75 0.359375 -3.03125 C 0.359375 -3.375 0.503906 -3.65625 0.796875 -3.875 C 1.085938 -4.101562 1.492188 -4.21875 2.015625 -4.21875 C 2.285156 -4.21875 2.554688 -4.179688 2.828125 -4.109375 C 3.097656 -4.046875 3.320312 -3.953125 3.5 -3.828125 L 3.25 -3.375 C 2.90625 -3.613281 2.492188 -3.734375 2.015625 -3.734375 C 1.648438 -3.734375 1.375 -3.671875 1.1875 -3.546875 C 1.007812 -3.421875 0.921875 -3.253906 0.921875 -3.046875 C 0.921875 -2.890625 0.972656 -2.757812 1.078125 -2.65625 C 1.179688 -2.5625 1.3125 -2.488281 1.46875 -2.4375 C 1.625 -2.394531 1.835938 -2.351562 2.109375 -2.3125 C 2.441406 -2.25 2.707031 -2.1875 2.90625 -2.125 C 3.113281 -2.0625 3.285156 -1.953125 3.421875 -1.796875 C 3.566406 -1.640625 3.640625 -1.425781 3.640625 -1.15625 C 3.640625 -0.789062 3.484375 -0.5 3.171875 -0.28125 C 2.867188 -0.0625 2.445312 0.046875 1.90625 0.046875 Z M 1.90625 0.046875 "/></g></g></g><g fill="#9f9f9f" fill-opacity="1"><g transform="translate(114.179869, 78.808099)"><g><path d="M 4.4375 -1.921875 L 0.9375 -1.921875 C 0.96875 -1.484375 1.132812 -1.128906 1.4375 -0.859375 C 1.738281 -0.597656 2.117188 -0.46875 2.578125 -0.46875 C 2.835938 -0.46875 3.078125 -0.507812 3.296875 -0.59375 C 3.515625 -0.6875 3.703125 -0.828125 3.859375 -1.015625 L 4.1875 -0.640625 C 4 -0.421875 3.765625 -0.25 3.484375 -0.125 C 3.203125 -0.0078125 2.894531 0.046875 2.5625 0.046875 C 2.132812 0.046875 1.753906 -0.046875 1.421875 -0.234375 C 1.085938 -0.421875 0.828125 -0.675781 0.640625 -1 C 0.453125 -1.320312 0.359375 -1.6875 0.359375 -2.09375 C 0.359375 -2.5 0.445312 -2.863281 0.625 -3.1875 C 0.8125 -3.519531 1.054688 -3.773438 1.359375 -3.953125 C 1.671875 -4.128906 2.023438 -4.21875 2.421875 -4.21875 C 2.804688 -4.21875 3.148438 -4.128906 3.453125 -3.953125 C 3.765625 -3.773438 4.007812 -3.523438 4.1875 -3.203125 C 4.363281 -2.878906 4.453125 -2.507812 4.453125 -2.09375 Z M 2.421875 -3.734375 C 2.015625 -3.734375 1.671875 -3.601562 1.390625 -3.34375 C 1.117188 -3.09375 0.96875 -2.757812 0.9375 -2.34375 L 3.90625 -2.34375 C 3.863281 -2.757812 3.707031 -3.09375 3.4375 -3.34375 C 3.164062 -3.601562 2.828125 -3.734375 2.421875 -3.734375 Z M 2.421875 -3.734375 "/></g></g></g><g fill="#9f9f9f" fill-opacity="1"><g transform="translate(118.990537, 78.808099)"><g><path d="M 2.921875 -4.21875 C 3.453125 -4.21875 3.867188 -4.066406 4.171875 -3.765625 C 4.484375 -3.460938 4.640625 -3.019531 4.640625 -2.4375 L 4.640625 0 L 4.078125 0 L 4.078125 -2.375 C 4.078125 -2.8125 3.96875 -3.144531 3.75 -3.375 C 3.53125 -3.601562 3.222656 -3.71875 2.828125 -3.71875 C 2.367188 -3.71875 2.007812 -3.582031 1.75 -3.3125 C 1.488281 -3.039062 1.359375 -2.671875 1.359375 -2.203125 L 1.359375 0 L 0.78125 0 L 0.78125 -4.1875 L 1.328125 -4.1875 L 1.328125 -3.421875 C 1.484375 -3.671875 1.695312 -3.863281 1.96875 -4 C 2.238281 -4.144531 2.554688 -4.21875 2.921875 -4.21875 Z M 2.921875 -4.21875 "/></g></g></g><g fill="#9f9f9f" fill-opacity="1"><g transform="translate(124.382629, 78.808099)"><g><path d="M 3 -0.25 C 2.894531 -0.15625 2.757812 -0.0820312 2.59375 -0.03125 C 2.4375 0.0195312 2.273438 0.046875 2.109375 0.046875 C 1.710938 0.046875 1.410156 -0.0546875 1.203125 -0.265625 C 0.992188 -0.484375 0.890625 -0.785156 0.890625 -1.171875 L 0.890625 -3.71875 L 0.140625 -3.71875 L 0.140625 -4.1875 L 0.890625 -4.1875 L 0.890625 -5.109375 L 1.453125 -5.109375 L 1.453125 -4.1875 L 2.71875 -4.1875 L 2.71875 -3.71875 L 1.453125 -3.71875 L 1.453125 -1.21875 C 1.453125 -0.96875 1.515625 -0.773438 1.640625 -0.640625 C 1.765625 -0.515625 1.941406 -0.453125 2.171875 -0.453125 C 2.285156 -0.453125 2.394531 -0.46875 2.5 -0.5 C 2.613281 -0.539062 2.710938 -0.59375 2.796875 -0.65625 Z M 3 -0.25 "/></g></g></g></svg>