<svg xmlns="http://www.w3.org/2000/svg" xmlns:xlink="http://www.w3.org/1999/xlink" width="400" zoomAndPan="magnify" viewBox="0 0 300 112.499997" height="150" preserveAspectRatio="xMidYMid meet" version="1.0"><defs><g/><clipPath id="5a85ed1b12"><path d="M 4.398438 23.371094 L 45.464844 23.371094 L 45.464844 64.4375 L 4.398438 64.4375 Z M 4.398438 23.371094 " clip-rule="nonzero"/></clipPath><clipPath id="ed1fa99311"><path d="M 24.929688 23.371094 C 13.589844 23.371094 4.398438 32.5625 4.398438 43.90625 C 4.398438 55.246094 13.589844 64.4375 24.929688 64.4375 C 36.269531 64.4375 45.464844 55.246094 45.464844 43.90625 C 45.464844 32.5625 36.269531 23.371094 24.929688 23.371094 Z M 24.929688 23.371094 " clip-rule="nonzero"/></clipPath></defs><g fill="#488ce4" fill-opacity="1"><g transform="translate(52.931417, 33.526022)"><g><path d="M 7.546875 -1.828125 L 7.546875 0 L 0.84375 0 L 0.84375 -8.359375 L 7.40625 -8.359375 L 7.40625 -6.53125 L 3.171875 -6.53125 L 3.171875 -5.125 L 6.890625 -5.125 L 6.890625 -3.359375 L 3.171875 -3.359375 L 3.171875 -1.828125 Z M 7.546875 -1.828125 "/></g></g></g><g fill="#488ce4" fill-opacity="1"><g transform="translate(60.959757, 33.526022)"><g><path d="M 8.796875 -8.359375 L 8.796875 0 L 6.84375 0 L 3.15625 -4.453125 L 3.15625 0 L 0.84375 0 L 0.84375 -8.359375 L 2.78125 -8.359375 L 6.484375 -3.90625 L 6.484375 -8.359375 Z M 8.796875 -8.359375 "/></g></g></g><g fill="#488ce4" fill-opacity="1"><g transform="translate(70.588979, 33.526022)"><g><path d="M 2.625 -6.484375 L 0.046875 -6.484375 L 0.046875 -8.359375 L 7.546875 -8.359375 L 7.546875 -6.484375 L 4.984375 -6.484375 L 4.984375 0 L 2.625 0 Z M 2.625 -6.484375 "/></g></g></g><g fill="#488ce4" fill-opacity="1"><g transform="translate(78.175276, 33.526022)"><g><path d="M 4.5 -2.21875 L 3.203125 -2.21875 L 3.203125 0 L 0.84375 0 L 0.84375 -8.359375 L 4.65625 -8.359375 C 5.414062 -8.359375 6.070312 -8.234375 6.625 -7.984375 C 7.1875 -7.734375 7.617188 -7.375 7.921875 -6.90625 C 8.222656 -6.445312 8.375 -5.898438 8.375 -5.265625 C 8.375 -4.660156 8.234375 -4.132812 7.953125 -3.6875 C 7.671875 -3.238281 7.265625 -2.882812 6.734375 -2.625 L 8.546875 0 L 6.015625 0 Z M 5.984375 -5.265625 C 5.984375 -5.660156 5.859375 -5.960938 5.609375 -6.171875 C 5.367188 -6.390625 5.003906 -6.5 4.515625 -6.5 L 3.203125 -6.5 L 3.203125 -4.046875 L 4.515625 -4.046875 C 5.003906 -4.046875 5.367188 -4.148438 5.609375 -4.359375 C 5.859375 -4.578125 5.984375 -4.878906 5.984375 -5.265625 Z M 5.984375 -5.265625 "/></g></g></g><g fill="#488ce4" fill-opacity="1"><g transform="translate(87.016003, 33.526022)"><g><path d="M 7.546875 -1.828125 L 7.546875 0 L 0.84375 0 L 0.84375 -8.359375 L 7.40625 -8.359375 L 7.40625 -6.53125 L 3.171875 -6.53125 L 3.171875 -5.125 L 6.890625 -5.125 L 6.890625 -3.359375 L 3.171875 -3.359375 L 3.171875 -1.828125 Z M 7.546875 -1.828125 "/></g></g></g><g fill="#488ce4" fill-opacity="1"><g transform="translate(95.044343, 33.526022)"><g><path d="M 4.65625 -8.359375 C 5.414062 -8.359375 6.070312 -8.234375 6.625 -7.984375 C 7.1875 -7.734375 7.617188 -7.375 7.921875 -6.90625 C 8.222656 -6.445312 8.375 -5.898438 8.375 -5.265625 C 8.375 -4.640625 8.222656 -4.09375 7.921875 -3.625 C 7.617188 -3.164062 7.1875 -2.8125 6.625 -2.5625 C 6.070312 -2.3125 5.414062 -2.1875 4.65625 -2.1875 L 3.203125 -2.1875 L 3.203125 0 L 0.84375 0 L 0.84375 -8.359375 Z M 4.515625 -4.046875 C 5.003906 -4.046875 5.367188 -4.148438 5.609375 -4.359375 C 5.859375 -4.578125 5.984375 -4.878906 5.984375 -5.265625 C 5.984375 -5.660156 5.859375 -5.960938 5.609375 -6.171875 C 5.367188 -6.390625 5.003906 -6.5 4.515625 -6.5 L 3.203125 -6.5 L 3.203125 -4.046875 Z M 4.515625 -4.046875 "/></g></g></g><g fill="#488ce4" fill-opacity="1"><g transform="translate(103.849227, 33.526022)"><g><path d="M 4.5 -2.21875 L 3.203125 -2.21875 L 3.203125 0 L 0.84375 0 L 0.84375 -8.359375 L 4.65625 -8.359375 C 5.414062 -8.359375 6.070312 -8.234375 6.625 -7.984375 C 7.1875 -7.734375 7.617188 -7.375 7.921875 -6.90625 C 8.222656 -6.445312 8.375 -5.898438 8.375 -5.265625 C 8.375 -4.660156 8.234375 -4.132812 7.953125 -3.6875 C 7.671875 -3.238281 7.265625 -2.882812 6.734375 -2.625 L 8.546875 0 L 6.015625 0 Z M 5.984375 -5.265625 C 5.984375 -5.660156 5.859375 -5.960938 5.609375 -6.171875 C 5.367188 -6.390625 5.003906 -6.5 4.515625 -6.5 L 3.203125 -6.5 L 3.203125 -4.046875 L 4.515625 -4.046875 C 5.003906 -4.046875 5.367188 -4.148438 5.609375 -4.359375 C 5.859375 -4.578125 5.984375 -4.878906 5.984375 -5.265625 Z M 5.984375 -5.265625 "/></g></g></g><g fill="#488ce4" fill-opacity="1"><g transform="translate(112.689954, 33.526022)"><g><path d="M 7.546875 -1.828125 L 7.546875 0 L 0.84375 0 L 0.84375 -8.359375 L 7.40625 -8.359375 L 7.40625 -6.53125 L 3.171875 -6.53125 L 3.171875 -5.125 L 6.890625 -5.125 L 6.890625 -3.359375 L 3.171875 -3.359375 L 3.171875 -1.828125 Z M 7.546875 -1.828125 "/></g></g></g><g fill="#488ce4" fill-opacity="1"><g transform="translate(120.718294, 33.526022)"><g><path d="M 8.796875 -8.359375 L 8.796875 0 L 6.84375 0 L 3.15625 -4.453125 L 3.15625 0 L 0.84375 0 L 0.84375 -8.359375 L 2.78125 -8.359375 L 6.484375 -3.90625 L 6.484375 -8.359375 Z M 8.796875 -8.359375 "/></g></g></g><g fill="#488ce4" fill-opacity="1"><g transform="translate(130.347517, 33.526022)"><g><path d="M 7.546875 -1.828125 L 7.546875 0 L 0.84375 0 L 0.84375 -8.359375 L 7.40625 -8.359375 L 7.40625 -6.53125 L 3.171875 -6.53125 L 3.171875 -5.125 L 6.890625 -5.125 L 6.890625 -3.359375 L 3.171875 -3.359375 L 3.171875 -1.828125 Z M 7.546875 -1.828125 "/></g></g></g><g fill="#488ce4" fill-opacity="1"><g transform="translate(138.375857, 33.526022)"><g><path d="M 4.703125 0.171875 C 3.453125 0.171875 2.484375 -0.164062 1.796875 -0.84375 C 1.109375 -1.519531 0.765625 -2.484375 0.765625 -3.734375 L 0.765625 -8.359375 L 3.125 -8.359375 L 3.125 -3.796875 C 3.125 -2.460938 3.65625 -1.796875 4.71875 -1.796875 C 5.769531 -1.796875 6.296875 -2.460938 6.296875 -3.796875 L 6.296875 -8.359375 L 8.625 -8.359375 L 8.625 -3.734375 C 8.625 -2.484375 8.28125 -1.519531 7.59375 -0.84375 C 6.90625 -0.164062 5.941406 0.171875 4.703125 0.171875 Z M 4.703125 0.171875 "/></g></g></g><g fill="#488ce4" fill-opacity="1"><g transform="translate(147.766136, 33.526022)"><g><path d="M 4.5 -2.21875 L 3.203125 -2.21875 L 3.203125 0 L 0.84375 0 L 0.84375 -8.359375 L 4.65625 -8.359375 C 5.414062 -8.359375 6.070312 -8.234375 6.625 -7.984375 C 7.1875 -7.734375 7.617188 -7.375 7.921875 -6.90625 C 8.222656 -6.445312 8.375 -5.898438 8.375 -5.265625 C 8.375 -4.660156 8.234375 -4.132812 7.953125 -3.6875 C 7.671875 -3.238281 7.265625 -2.882812 6.734375 -2.625 L 8.546875 0 L 6.015625 0 Z M 5.984375 -5.265625 C 5.984375 -5.660156 5.859375 -5.960938 5.609375 -6.171875 C 5.367188 -6.390625 5.003906 -6.5 4.515625 -6.5 L 3.203125 -6.5 L 3.203125 -4.046875 L 4.515625 -4.046875 C 5.003906 -4.046875 5.367188 -4.148438 5.609375 -4.359375 C 5.859375 -4.578125 5.984375 -4.878906 5.984375 -5.265625 Z M 5.984375 -5.265625 "/></g></g></g><g fill="#488ce4" fill-opacity="1"><g transform="translate(156.606864, 33.526022)"><g/></g></g><g fill="#488ce4" fill-opacity="1"><g transform="translate(160.083417, 33.526022)"><g><path d="M 7.453125 0.140625 L 6.515625 -0.6875 C 6.117188 -0.414062 5.679688 -0.203125 5.203125 -0.046875 C 4.734375 0.0976562 4.234375 0.171875 3.703125 0.171875 C 3.078125 0.171875 2.507812 0.0703125 2 -0.125 C 1.488281 -0.332031 1.085938 -0.613281 0.796875 -0.96875 C 0.515625 -1.332031 0.375 -1.738281 0.375 -2.1875 C 0.375 -2.707031 0.507812 -3.164062 0.78125 -3.5625 C 1.0625 -3.957031 1.503906 -4.320312 2.109375 -4.65625 C 1.578125 -5.195312 1.3125 -5.753906 1.3125 -6.328125 C 1.3125 -6.753906 1.425781 -7.128906 1.65625 -7.453125 C 1.894531 -7.785156 2.222656 -8.039062 2.640625 -8.21875 C 3.066406 -8.394531 3.5625 -8.484375 4.125 -8.484375 C 4.894531 -8.484375 5.515625 -8.300781 5.984375 -7.9375 C 6.460938 -7.582031 6.703125 -7.097656 6.703125 -6.484375 C 6.703125 -6.046875 6.578125 -5.660156 6.328125 -5.328125 C 6.078125 -4.992188 5.6875 -4.679688 5.15625 -4.390625 L 6.375 -3.296875 C 6.53125 -3.648438 6.648438 -4.050781 6.734375 -4.5 L 8.578125 -3.9375 C 8.410156 -3.226562 8.148438 -2.597656 7.796875 -2.046875 L 8.671875 -1.25 Z M 4.125 -7 C 3.894531 -7 3.710938 -6.9375 3.578125 -6.8125 C 3.441406 -6.695312 3.375 -6.550781 3.375 -6.375 C 3.375 -6.238281 3.410156 -6.109375 3.484375 -5.984375 C 3.566406 -5.859375 3.710938 -5.695312 3.921875 -5.5 C 4.242188 -5.664062 4.46875 -5.820312 4.59375 -5.96875 C 4.726562 -6.113281 4.796875 -6.269531 4.796875 -6.4375 C 4.796875 -6.601562 4.738281 -6.738281 4.625 -6.84375 C 4.507812 -6.945312 4.34375 -7 4.125 -7 Z M 3.875 -1.5625 C 4.332031 -1.5625 4.757812 -1.675781 5.15625 -1.90625 L 3.34375 -3.515625 C 3.082031 -3.359375 2.890625 -3.191406 2.765625 -3.015625 C 2.648438 -2.847656 2.59375 -2.65625 2.59375 -2.4375 C 2.59375 -2.1875 2.707031 -1.976562 2.9375 -1.8125 C 3.164062 -1.644531 3.476562 -1.5625 3.875 -1.5625 Z M 3.875 -1.5625 "/></g></g></g><g fill="#488ce4" fill-opacity="1"><g transform="translate(169.067508, 33.526022)"><g/></g></g><g fill="#488ce4" fill-opacity="1"><g transform="translate(172.544061, 33.526022)"><g><path d="M 4.65625 -8.359375 C 5.414062 -8.359375 6.070312 -8.234375 6.625 -7.984375 C 7.1875 -7.734375 7.617188 -7.375 7.921875 -6.90625 C 8.222656 -6.445312 8.375 -5.898438 8.375 -5.265625 C 8.375 -4.640625 8.222656 -4.09375 7.921875 -3.625 C 7.617188 -3.164062 7.1875 -2.8125 6.625 -2.5625 C 6.070312 -2.3125 5.414062 -2.1875 4.65625 -2.1875 L 3.203125 -2.1875 L 3.203125 0 L 0.84375 0 L 0.84375 -8.359375 Z M 4.515625 -4.046875 C 5.003906 -4.046875 5.367188 -4.148438 5.609375 -4.359375 C 5.859375 -4.578125 5.984375 -4.878906 5.984375 -5.265625 C 5.984375 -5.660156 5.859375 -5.960938 5.609375 -6.171875 C 5.367188 -6.390625 5.003906 -6.5 4.515625 -6.5 L 3.203125 -6.5 L 3.203125 -4.046875 Z M 4.515625 -4.046875 "/></g></g></g><g fill="#488ce4" fill-opacity="1"><g transform="translate(181.348944, 33.526022)"><g><path d="M 4.5 -2.21875 L 3.203125 -2.21875 L 3.203125 0 L 0.84375 0 L 0.84375 -8.359375 L 4.65625 -8.359375 C 5.414062 -8.359375 6.070312 -8.234375 6.625 -7.984375 C 7.1875 -7.734375 7.617188 -7.375 7.921875 -6.90625 C 8.222656 -6.445312 8.375 -5.898438 8.375 -5.265625 C 8.375 -4.660156 8.234375 -4.132812 7.953125 -3.6875 C 7.671875 -3.238281 7.265625 -2.882812 6.734375 -2.625 L 8.546875 0 L 6.015625 0 Z M 5.984375 -5.265625 C 5.984375 -5.660156 5.859375 -5.960938 5.609375 -6.171875 C 5.367188 -6.390625 5.003906 -6.5 4.515625 -6.5 L 3.203125 -6.5 L 3.203125 -4.046875 L 4.515625 -4.046875 C 5.003906 -4.046875 5.367188 -4.148438 5.609375 -4.359375 C 5.859375 -4.578125 5.984375 -4.878906 5.984375 -5.265625 Z M 5.984375 -5.265625 "/></g></g></g><g fill="#488ce4" fill-opacity="1"><g transform="translate(190.189672, 33.526022)"><g><path d="M 5.0625 0.171875 C 4.175781 0.171875 3.378906 -0.015625 2.671875 -0.390625 C 1.960938 -0.765625 1.40625 -1.28125 1 -1.9375 C 0.601562 -2.601562 0.40625 -3.351562 0.40625 -4.1875 C 0.40625 -5.007812 0.601562 -5.75 1 -6.40625 C 1.40625 -7.070312 1.960938 -7.59375 2.671875 -7.96875 C 3.378906 -8.34375 4.175781 -8.53125 5.0625 -8.53125 C 5.945312 -8.53125 6.738281 -8.34375 7.4375 -7.96875 C 8.144531 -7.59375 8.695312 -7.070312 9.09375 -6.40625 C 9.5 -5.75 9.703125 -5.007812 9.703125 -4.1875 C 9.703125 -3.351562 9.5 -2.601562 9.09375 -1.9375 C 8.695312 -1.28125 8.144531 -0.765625 7.4375 -0.390625 C 6.738281 -0.015625 5.945312 0.171875 5.0625 0.171875 Z M 5.0625 -1.796875 C 5.476562 -1.796875 5.859375 -1.894531 6.203125 -2.09375 C 6.546875 -2.289062 6.816406 -2.570312 7.015625 -2.9375 C 7.210938 -3.300781 7.3125 -3.71875 7.3125 -4.1875 C 7.3125 -4.65625 7.210938 -5.066406 7.015625 -5.421875 C 6.816406 -5.785156 6.546875 -6.066406 6.203125 -6.265625 C 5.859375 -6.472656 5.476562 -6.578125 5.0625 -6.578125 C 4.632812 -6.578125 4.25 -6.472656 3.90625 -6.265625 C 3.5625 -6.066406 3.289062 -5.785156 3.09375 -5.421875 C 2.894531 -5.066406 2.796875 -4.65625 2.796875 -4.1875 C 2.796875 -3.71875 2.894531 -3.300781 3.09375 -2.9375 C 3.289062 -2.570312 3.5625 -2.289062 3.90625 -2.09375 C 4.25 -1.894531 4.632812 -1.796875 5.0625 -1.796875 Z M 5.0625 -1.796875 "/></g></g></g><g fill="#488ce4" fill-opacity="1"><g transform="translate(200.29677, 33.526022)"><g><path d="M 2.671875 0.171875 C 2.054688 0.171875 1.492188 0.0664062 0.984375 -0.140625 C 0.484375 -0.359375 0.078125 -0.664062 -0.234375 -1.0625 L 1.046875 -2.59375 C 1.492188 -2.007812 1.976562 -1.71875 2.5 -1.71875 C 2.84375 -1.71875 3.101562 -1.820312 3.28125 -2.03125 C 3.457031 -2.238281 3.546875 -2.539062 3.546875 -2.9375 L 3.546875 -6.53125 L 0.65625 -6.53125 L 0.65625 -8.359375 L 5.890625 -8.359375 L 5.890625 -3.078125 C 5.890625 -1.992188 5.613281 -1.179688 5.0625 -0.640625 C 4.519531 -0.0976562 3.722656 0.171875 2.671875 0.171875 Z M 2.671875 0.171875 "/></g></g></g><g fill="#488ce4" fill-opacity="1"><g transform="translate(206.951208, 33.526022)"><g><path d="M 7.546875 -1.828125 L 7.546875 0 L 0.84375 0 L 0.84375 -8.359375 L 7.40625 -8.359375 L 7.40625 -6.53125 L 3.171875 -6.53125 L 3.171875 -5.125 L 6.890625 -5.125 L 6.890625 -3.359375 L 3.171875 -3.359375 L 3.171875 -1.828125 Z M 7.546875 -1.828125 "/></g></g></g><g fill="#488ce4" fill-opacity="1"><g transform="translate(214.979548, 33.526022)"><g><path d="M 5.015625 0.171875 C 4.128906 0.171875 3.335938 -0.0078125 2.640625 -0.375 C 1.953125 -0.75 1.40625 -1.265625 1 -1.921875 C 0.601562 -2.585938 0.40625 -3.34375 0.40625 -4.1875 C 0.40625 -5.019531 0.601562 -5.765625 1 -6.421875 C 1.40625 -7.085938 1.953125 -7.601562 2.640625 -7.96875 C 3.335938 -8.34375 4.128906 -8.53125 5.015625 -8.53125 C 5.773438 -8.53125 6.460938 -8.394531 7.078125 -8.125 C 7.691406 -7.851562 8.203125 -7.460938 8.609375 -6.953125 L 7.09375 -5.59375 C 6.550781 -6.25 5.894531 -6.578125 5.125 -6.578125 C 4.675781 -6.578125 4.269531 -6.472656 3.90625 -6.265625 C 3.550781 -6.066406 3.273438 -5.785156 3.078125 -5.421875 C 2.890625 -5.066406 2.796875 -4.65625 2.796875 -4.1875 C 2.796875 -3.71875 2.890625 -3.300781 3.078125 -2.9375 C 3.273438 -2.570312 3.550781 -2.289062 3.90625 -2.09375 C 4.269531 -1.894531 4.675781 -1.796875 5.125 -1.796875 C 5.894531 -1.796875 6.550781 -2.117188 7.09375 -2.765625 L 8.609375 -1.40625 C 8.203125 -0.894531 7.691406 -0.503906 7.078125 -0.234375 C 6.460938 0.0351562 5.773438 0.171875 5.015625 0.171875 Z M 5.015625 0.171875 "/></g></g></g><g fill="#488ce4" fill-opacity="1"><g transform="translate(223.796383, 33.526022)"><g><path d="M 2.625 -6.484375 L 0.046875 -6.484375 L 0.046875 -8.359375 L 7.546875 -8.359375 L 7.546875 -6.484375 L 4.984375 -6.484375 L 4.984375 0 L 2.625 0 Z M 2.625 -6.484375 "/></g></g></g><g fill="#488ce4" fill-opacity="1"><g transform="translate(231.38268, 33.526022)"><g/></g></g><g fill="#488ce4" fill-opacity="1"><g transform="translate(234.859232, 33.526022)"><g><path d="M 5.015625 0.171875 C 4.128906 0.171875 3.335938 -0.0078125 2.640625 -0.375 C 1.953125 -0.75 1.40625 -1.265625 1 -1.921875 C 0.601562 -2.585938 0.40625 -3.34375 0.40625 -4.1875 C 0.40625 -5.019531 0.601562 -5.765625 1 -6.421875 C 1.40625 -7.085938 1.953125 -7.601562 2.640625 -7.96875 C 3.335938 -8.34375 4.128906 -8.53125 5.015625 -8.53125 C 5.773438 -8.53125 6.460938 -8.394531 7.078125 -8.125 C 7.691406 -7.851562 8.203125 -7.460938 8.609375 -6.953125 L 7.09375 -5.59375 C 6.550781 -6.25 5.894531 -6.578125 5.125 -6.578125 C 4.675781 -6.578125 4.269531 -6.472656 3.90625 -6.265625 C 3.550781 -6.066406 3.273438 -5.785156 3.078125 -5.421875 C 2.890625 -5.066406 2.796875 -4.65625 2.796875 -4.1875 C 2.796875 -3.71875 2.890625 -3.300781 3.078125 -2.9375 C 3.273438 -2.570312 3.550781 -2.289062 3.90625 -2.09375 C 4.269531 -1.894531 4.675781 -1.796875 5.125 -1.796875 C 5.894531 -1.796875 6.550781 -2.117188 7.09375 -2.765625 L 8.609375 -1.40625 C 8.203125 -0.894531 7.691406 -0.503906 7.078125 -0.234375 C 6.460938 0.0351562 5.773438 0.171875 5.015625 0.171875 Z M 5.015625 0.171875 "/></g></g></g><g fill="#488ce4" fill-opacity="1"><g transform="translate(243.676068, 33.526022)"><g><path d="M 4.5 -2.21875 L 3.203125 -2.21875 L 3.203125 0 L 0.84375 0 L 0.84375 -8.359375 L 4.65625 -8.359375 C 5.414062 -8.359375 6.070312 -8.234375 6.625 -7.984375 C 7.1875 -7.734375 7.617188 -7.375 7.921875 -6.90625 C 8.222656 -6.445312 8.375 -5.898438 8.375 -5.265625 C 8.375 -4.660156 8.234375 -4.132812 7.953125 -3.6875 C 7.671875 -3.238281 7.265625 -2.882812 6.734375 -2.625 L 8.546875 0 L 6.015625 0 Z M 5.984375 -5.265625 C 5.984375 -5.660156 5.859375 -5.960938 5.609375 -6.171875 C 5.367188 -6.390625 5.003906 -6.5 4.515625 -6.5 L 3.203125 -6.5 L 3.203125 -4.046875 L 4.515625 -4.046875 C 5.003906 -4.046875 5.367188 -4.148438 5.609375 -4.359375 C 5.859375 -4.578125 5.984375 -4.878906 5.984375 -5.265625 Z M 5.984375 -5.265625 "/></g></g></g><g fill="#488ce4" fill-opacity="1"><g transform="translate(252.516784, 33.526022)"><g><path d="M 7.546875 -1.828125 L 7.546875 0 L 0.84375 0 L 0.84375 -8.359375 L 7.40625 -8.359375 L 7.40625 -6.53125 L 3.171875 -6.53125 L 3.171875 -5.125 L 6.890625 -5.125 L 6.890625 -3.359375 L 3.171875 -3.359375 L 3.171875 -1.828125 Z M 7.546875 -1.828125 "/></g></g></g><g fill="#488ce4" fill-opacity="1"><g transform="translate(260.545112, 33.526022)"><g><path d="M 6.4375 -1.625 L 2.90625 -1.625 L 2.25 0 L -0.171875 0 L 3.53125 -8.359375 L 5.859375 -8.359375 L 9.5625 0 L 7.09375 0 Z M 5.75 -3.375 L 4.671875 -6.046875 L 3.59375 -3.375 Z M 5.75 -3.375 "/></g></g></g><g fill="#488ce4" fill-opacity="1"><g transform="translate(269.935392, 33.526022)"><g><path d="M 2.625 -6.484375 L 0.046875 -6.484375 L 0.046875 -8.359375 L 7.546875 -8.359375 L 7.546875 -6.484375 L 4.984375 -6.484375 L 4.984375 0 L 2.625 0 Z M 2.625 -6.484375 "/></g></g></g><g fill="#488ce4" fill-opacity="1"><g transform="translate(277.521677, 33.526022)"><g><path d="M 5.0625 0.171875 C 4.175781 0.171875 3.378906 -0.015625 2.671875 -0.390625 C 1.960938 -0.765625 1.40625 -1.28125 1 -1.9375 C 0.601562 -2.601562 0.40625 -3.351562 0.40625 -4.1875 C 0.40625 -5.007812 0.601562 -5.75 1 -6.40625 C 1.40625 -7.070312 1.960938 -7.59375 2.671875 -7.96875 C 3.378906 -8.34375 4.175781 -8.53125 5.0625 -8.53125 C 5.945312 -8.53125 6.738281 -8.34375 7.4375 -7.96875 C 8.144531 -7.59375 8.695312 -7.070312 9.09375 -6.40625 C 9.5 -5.75 9.703125 -5.007812 9.703125 -4.1875 C 9.703125 -3.351562 9.5 -2.601562 9.09375 -1.9375 C 8.695312 -1.28125 8.144531 -0.765625 7.4375 -0.390625 C 6.738281 -0.015625 5.945312 0.171875 5.0625 0.171875 Z M 5.0625 -1.796875 C 5.476562 -1.796875 5.859375 -1.894531 6.203125 -2.09375 C 6.546875 -2.289062 6.816406 -2.570312 7.015625 -2.9375 C 7.210938 -3.300781 7.3125 -3.71875 7.3125 -4.1875 C 7.3125 -4.65625 7.210938 -5.066406 7.015625 -5.421875 C 6.816406 -5.785156 6.546875 -6.066406 6.203125 -6.265625 C 5.859375 -6.472656 5.476562 -6.578125 5.0625 -6.578125 C 4.632812 -6.578125 4.25 -6.472656 3.90625 -6.265625 C 3.5625 -6.066406 3.289062 -5.785156 3.09375 -5.421875 C 2.894531 -5.066406 2.796875 -4.65625 2.796875 -4.1875 C 2.796875 -3.71875 2.894531 -3.300781 3.09375 -2.9375 C 3.289062 -2.570312 3.5625 -2.289062 3.90625 -2.09375 C 4.25 -1.894531 4.632812 -1.796875 5.0625 -1.796875 Z M 5.0625 -1.796875 "/></g></g></g><g fill="#488ce4" fill-opacity="1"><g transform="translate(287.628764, 33.526022)"><g><path d="M 4.5 -2.21875 L 3.203125 -2.21875 L 3.203125 0 L 0.84375 0 L 0.84375 -8.359375 L 4.65625 -8.359375 C 5.414062 -8.359375 6.070312 -8.234375 6.625 -7.984375 C 7.1875 -7.734375 7.617188 -7.375 7.921875 -6.90625 C 8.222656 -6.445312 8.375 -5.898438 8.375 -5.265625 C 8.375 -4.660156 8.234375 -4.132812 7.953125 -3.6875 C 7.671875 -3.238281 7.265625 -2.882812 6.734375 -2.625 L 8.546875 0 L 6.015625 0 Z M 5.984375 -5.265625 C 5.984375 -5.660156 5.859375 -5.960938 5.609375 -6.171875 C 5.367188 -6.390625 5.003906 -6.5 4.515625 -6.5 L 3.203125 -6.5 L 3.203125 -4.046875 L 4.515625 -4.046875 C 5.003906 -4.046875 5.367188 -4.148438 5.609375 -4.359375 C 5.859375 -4.578125 5.984375 -4.878906 5.984375 -5.265625 Z M 5.984375 -5.265625 "/></g></g></g><g clip-path="url(#5a85ed1b12)"><g clip-path="url(#ed1fa99311)"><path fill="#ffde59" d="M 4.398438 23.371094 L 45.464844 23.371094 L 45.464844 64.4375 L 4.398438 64.4375 Z M 4.398438 23.371094 " fill-opacity="1" fill-rule="nonzero"/><path stroke-linecap="butt" transform="matrix(0.746681, 0, 0, 0.746681, 4.397128, 23.371127)" fill="none" stroke-linejoin="miter" d="M 27.498422 -0.000044074 C 12.311431 -0.000044074 0.00175375 12.309633 0.00175375 27.501856 C 0.00175375 42.688848 12.311431 54.998525 27.498422 54.998525 C 42.685414 54.998525 55.000322 42.688848 55.000322 27.501856 C 55.000322 12.309633 42.685414 -0.000044074 27.498422 -0.000044074 Z M 27.498422 -0.000044074 " stroke="#ffde59" stroke-width="2" stroke-opacity="1" stroke-miterlimit="4"/></g></g><g fill="#ffffff" fill-opacity="1"><g transform="translate(52.931417, 51.944114)"><g><path d="M 1.25 -7.671875 L 2.0625 -7.671875 L 2.0625 0 L 1.25 0 Z M 1.25 -7.671875 "/></g></g></g><g fill="#ffffff" fill-opacity="1"><g transform="translate(56.236384, 51.944114)"><g><path d="M 4.015625 -5.8125 C 4.742188 -5.8125 5.320312 -5.597656 5.75 -5.171875 C 6.175781 -4.753906 6.390625 -4.144531 6.390625 -3.34375 L 6.390625 0 L 5.609375 0 L 5.609375 -3.265625 C 5.609375 -3.859375 5.457031 -4.3125 5.15625 -4.625 C 4.851562 -4.945312 4.425781 -5.109375 3.875 -5.109375 C 3.257812 -5.109375 2.769531 -4.921875 2.40625 -4.546875 C 2.039062 -4.179688 1.859375 -3.671875 1.859375 -3.015625 L 1.859375 0 L 1.078125 0 L 1.078125 -5.765625 L 1.828125 -5.765625 L 1.828125 -4.703125 C 2.035156 -5.046875 2.328125 -5.316406 2.703125 -5.515625 C 3.085938 -5.710938 3.523438 -5.8125 4.015625 -5.8125 Z M 4.015625 -5.8125 "/></g></g></g><g fill="#ffffff" fill-opacity="1"><g transform="translate(63.645194, 51.944114)"><g><path d="M 6.34375 -8.125 L 6.34375 0 L 5.59375 0 L 5.59375 -1.140625 C 5.363281 -0.753906 5.054688 -0.457031 4.671875 -0.25 C 4.285156 -0.0390625 3.851562 0.0625 3.375 0.0625 C 2.832031 0.0625 2.34375 -0.0625 1.90625 -0.3125 C 1.46875 -0.5625 1.125 -0.910156 0.875 -1.359375 C 0.625 -1.804688 0.5 -2.3125 0.5 -2.875 C 0.5 -3.445312 0.625 -3.957031 0.875 -4.40625 C 1.125 -4.851562 1.46875 -5.195312 1.90625 -5.4375 C 2.34375 -5.6875 2.832031 -5.8125 3.375 -5.8125 C 3.84375 -5.8125 4.265625 -5.710938 4.640625 -5.515625 C 5.015625 -5.316406 5.320312 -5.035156 5.5625 -4.671875 L 5.5625 -8.125 Z M 3.4375 -0.640625 C 3.84375 -0.640625 4.207031 -0.726562 4.53125 -0.90625 C 4.851562 -1.09375 5.109375 -1.359375 5.296875 -1.703125 C 5.484375 -2.046875 5.578125 -2.4375 5.578125 -2.875 C 5.578125 -3.3125 5.484375 -3.703125 5.296875 -4.046875 C 5.109375 -4.390625 4.851562 -4.65625 4.53125 -4.84375 C 4.207031 -5.03125 3.84375 -5.125 3.4375 -5.125 C 3.03125 -5.125 2.660156 -5.03125 2.328125 -4.84375 C 2.003906 -4.65625 1.75 -4.390625 1.5625 -4.046875 C 1.382812 -3.703125 1.296875 -3.3125 1.296875 -2.875 C 1.296875 -2.4375 1.382812 -2.046875 1.5625 -1.703125 C 1.75 -1.359375 2.003906 -1.09375 2.328125 -0.90625 C 2.660156 -0.726562 3.03125 -0.640625 3.4375 -0.640625 Z M 3.4375 -0.640625 "/></g></g></g><g fill="#ffffff" fill-opacity="1"><g transform="translate(71.064952, 51.944114)"><g><path d="M 6.09375 -2.640625 L 1.28125 -2.640625 C 1.320312 -2.035156 1.550781 -1.550781 1.96875 -1.1875 C 2.382812 -0.820312 2.910156 -0.640625 3.546875 -0.640625 C 3.898438 -0.640625 4.226562 -0.703125 4.53125 -0.828125 C 4.832031 -0.953125 5.09375 -1.140625 5.3125 -1.390625 L 5.75 -0.890625 C 5.488281 -0.578125 5.164062 -0.335938 4.78125 -0.171875 C 4.40625 -0.015625 3.988281 0.0625 3.53125 0.0625 C 2.9375 0.0625 2.410156 -0.0625 1.953125 -0.3125 C 1.492188 -0.570312 1.132812 -0.921875 0.875 -1.359375 C 0.625 -1.804688 0.5 -2.3125 0.5 -2.875 C 0.5 -3.4375 0.617188 -3.941406 0.859375 -4.390625 C 1.109375 -4.835938 1.445312 -5.1875 1.875 -5.4375 C 2.300781 -5.6875 2.78125 -5.8125 3.3125 -5.8125 C 3.851562 -5.8125 4.332031 -5.6875 4.75 -5.4375 C 5.175781 -5.1875 5.507812 -4.835938 5.75 -4.390625 C 5.988281 -3.953125 6.109375 -3.445312 6.109375 -2.875 Z M 3.3125 -5.140625 C 2.757812 -5.140625 2.296875 -4.960938 1.921875 -4.609375 C 1.546875 -4.253906 1.332031 -3.789062 1.28125 -3.21875 L 5.359375 -3.21875 C 5.316406 -3.789062 5.101562 -4.253906 4.71875 -4.609375 C 4.34375 -4.960938 3.875 -5.140625 3.3125 -5.140625 Z M 3.3125 -5.140625 "/></g></g></g><g fill="#ffffff" fill-opacity="1"><g transform="translate(77.674876, 51.944114)"><g><path d="M 4.046875 -5.8125 C 4.585938 -5.8125 5.078125 -5.6875 5.515625 -5.4375 C 5.953125 -5.195312 6.296875 -4.851562 6.546875 -4.40625 C 6.796875 -3.957031 6.921875 -3.445312 6.921875 -2.875 C 6.921875 -2.300781 6.796875 -1.789062 6.546875 -1.34375 C 6.296875 -0.894531 5.953125 -0.546875 5.515625 -0.296875 C 5.085938 -0.0546875 4.597656 0.0625 4.046875 0.0625 C 3.585938 0.0625 3.164062 -0.0351562 2.78125 -0.234375 C 2.40625 -0.429688 2.097656 -0.710938 1.859375 -1.078125 L 1.859375 2.125 L 1.078125 2.125 L 1.078125 -5.765625 L 1.828125 -5.765625 L 1.828125 -4.625 C 2.054688 -5 2.363281 -5.289062 2.75 -5.5 C 3.132812 -5.707031 3.566406 -5.8125 4.046875 -5.8125 Z M 4 -0.640625 C 4.394531 -0.640625 4.757812 -0.726562 5.09375 -0.90625 C 5.425781 -1.09375 5.679688 -1.359375 5.859375 -1.703125 C 6.046875 -2.046875 6.140625 -2.4375 6.140625 -2.875 C 6.140625 -3.3125 6.046875 -3.703125 5.859375 -4.046875 C 5.679688 -4.390625 5.425781 -4.65625 5.09375 -4.84375 C 4.757812 -5.03125 4.394531 -5.125 4 -5.125 C 3.59375 -5.125 3.222656 -5.03125 2.890625 -4.84375 C 2.566406 -4.65625 2.3125 -4.390625 2.125 -4.046875 C 1.9375 -3.703125 1.84375 -3.3125 1.84375 -2.875 C 1.84375 -2.4375 1.9375 -2.046875 2.125 -1.703125 C 2.3125 -1.359375 2.566406 -1.09375 2.890625 -0.90625 C 3.222656 -0.726562 3.59375 -0.640625 4 -0.640625 Z M 4 -0.640625 "/></g></g></g><g fill="#ffffff" fill-opacity="1"><g transform="translate(85.094634, 51.944114)"><g><path d="M 6.09375 -2.640625 L 1.28125 -2.640625 C 1.320312 -2.035156 1.550781 -1.550781 1.96875 -1.1875 C 2.382812 -0.820312 2.910156 -0.640625 3.546875 -0.640625 C 3.898438 -0.640625 4.226562 -0.703125 4.53125 -0.828125 C 4.832031 -0.953125 5.09375 -1.140625 5.3125 -1.390625 L 5.75 -0.890625 C 5.488281 -0.578125 5.164062 -0.335938 4.78125 -0.171875 C 4.40625 -0.015625 3.988281 0.0625 3.53125 0.0625 C 2.9375 0.0625 2.410156 -0.0625 1.953125 -0.3125 C 1.492188 -0.570312 1.132812 -0.921875 0.875 -1.359375 C 0.625 -1.804688 0.5 -2.3125 0.5 -2.875 C 0.5 -3.4375 0.617188 -3.941406 0.859375 -4.390625 C 1.109375 -4.835938 1.445312 -5.1875 1.875 -5.4375 C 2.300781 -5.6875 2.78125 -5.8125 3.3125 -5.8125 C 3.851562 -5.8125 4.332031 -5.6875 4.75 -5.4375 C 5.175781 -5.1875 5.507812 -4.835938 5.75 -4.390625 C 5.988281 -3.953125 6.109375 -3.445312 6.109375 -2.875 Z M 3.3125 -5.140625 C 2.757812 -5.140625 2.296875 -4.960938 1.921875 -4.609375 C 1.546875 -4.253906 1.332031 -3.789062 1.28125 -3.21875 L 5.359375 -3.21875 C 5.316406 -3.789062 5.101562 -4.253906 4.71875 -4.609375 C 4.34375 -4.960938 3.875 -5.140625 3.3125 -5.140625 Z M 3.3125 -5.140625 "/></g></g></g><g fill="#ffffff" fill-opacity="1"><g transform="translate(91.704558, 51.944114)"><g><path d="M 4.015625 -5.8125 C 4.742188 -5.8125 5.320312 -5.597656 5.75 -5.171875 C 6.175781 -4.753906 6.390625 -4.144531 6.390625 -3.34375 L 6.390625 0 L 5.609375 0 L 5.609375 -3.265625 C 5.609375 -3.859375 5.457031 -4.3125 5.15625 -4.625 C 4.851562 -4.945312 4.425781 -5.109375 3.875 -5.109375 C 3.257812 -5.109375 2.769531 -4.921875 2.40625 -4.546875 C 2.039062 -4.179688 1.859375 -3.671875 1.859375 -3.015625 L 1.859375 0 L 1.078125 0 L 1.078125 -5.765625 L 1.828125 -5.765625 L 1.828125 -4.703125 C 2.035156 -5.046875 2.328125 -5.316406 2.703125 -5.515625 C 3.085938 -5.710938 3.523438 -5.8125 4.015625 -5.8125 Z M 4.015625 -5.8125 "/></g></g></g><g fill="#ffffff" fill-opacity="1"><g transform="translate(99.113367, 51.944114)"><g><path d="M 6.34375 -8.125 L 6.34375 0 L 5.59375 0 L 5.59375 -1.140625 C 5.363281 -0.753906 5.054688 -0.457031 4.671875 -0.25 C 4.285156 -0.0390625 3.851562 0.0625 3.375 0.0625 C 2.832031 0.0625 2.34375 -0.0625 1.90625 -0.3125 C 1.46875 -0.5625 1.125 -0.910156 0.875 -1.359375 C 0.625 -1.804688 0.5 -2.3125 0.5 -2.875 C 0.5 -3.445312 0.625 -3.957031 0.875 -4.40625 C 1.125 -4.851562 1.46875 -5.195312 1.90625 -5.4375 C 2.34375 -5.6875 2.832031 -5.8125 3.375 -5.8125 C 3.84375 -5.8125 4.265625 -5.710938 4.640625 -5.515625 C 5.015625 -5.316406 5.320312 -5.035156 5.5625 -4.671875 L 5.5625 -8.125 Z M 3.4375 -0.640625 C 3.84375 -0.640625 4.207031 -0.726562 4.53125 -0.90625 C 4.851562 -1.09375 5.109375 -1.359375 5.296875 -1.703125 C 5.484375 -2.046875 5.578125 -2.4375 5.578125 -2.875 C 5.578125 -3.3125 5.484375 -3.703125 5.296875 -4.046875 C 5.109375 -4.390625 4.851562 -4.65625 4.53125 -4.84375 C 4.207031 -5.03125 3.84375 -5.125 3.4375 -5.125 C 3.03125 -5.125 2.660156 -5.03125 2.328125 -4.84375 C 2.003906 -4.65625 1.75 -4.390625 1.5625 -4.046875 C 1.382812 -3.703125 1.296875 -3.3125 1.296875 -2.875 C 1.296875 -2.4375 1.382812 -2.046875 1.5625 -1.703125 C 1.75 -1.359375 2.003906 -1.09375 2.328125 -0.90625 C 2.660156 -0.726562 3.03125 -0.640625 3.4375 -0.640625 Z M 3.4375 -0.640625 "/></g></g></g><g fill="#ffffff" fill-opacity="1"><g transform="translate(106.533126, 51.944114)"><g><path d="M 6.09375 -2.640625 L 1.28125 -2.640625 C 1.320312 -2.035156 1.550781 -1.550781 1.96875 -1.1875 C 2.382812 -0.820312 2.910156 -0.640625 3.546875 -0.640625 C 3.898438 -0.640625 4.226562 -0.703125 4.53125 -0.828125 C 4.832031 -0.953125 5.09375 -1.140625 5.3125 -1.390625 L 5.75 -0.890625 C 5.488281 -0.578125 5.164062 -0.335938 4.78125 -0.171875 C 4.40625 -0.015625 3.988281 0.0625 3.53125 0.0625 C 2.9375 0.0625 2.410156 -0.0625 1.953125 -0.3125 C 1.492188 -0.570312 1.132812 -0.921875 0.875 -1.359375 C 0.625 -1.804688 0.5 -2.3125 0.5 -2.875 C 0.5 -3.4375 0.617188 -3.941406 0.859375 -4.390625 C 1.109375 -4.835938 1.445312 -5.1875 1.875 -5.4375 C 2.300781 -5.6875 2.78125 -5.8125 3.3125 -5.8125 C 3.851562 -5.8125 4.332031 -5.6875 4.75 -5.4375 C 5.175781 -5.1875 5.507812 -4.835938 5.75 -4.390625 C 5.988281 -3.953125 6.109375 -3.445312 6.109375 -2.875 Z M 3.3125 -5.140625 C 2.757812 -5.140625 2.296875 -4.960938 1.921875 -4.609375 C 1.546875 -4.253906 1.332031 -3.789062 1.28125 -3.21875 L 5.359375 -3.21875 C 5.316406 -3.789062 5.101562 -4.253906 4.71875 -4.609375 C 4.34375 -4.960938 3.875 -5.140625 3.3125 -5.140625 Z M 3.3125 -5.140625 "/></g></g></g><g fill="#ffffff" fill-opacity="1"><g transform="translate(113.143049, 51.944114)"><g><path d="M 4.015625 -5.8125 C 4.742188 -5.8125 5.320312 -5.597656 5.75 -5.171875 C 6.175781 -4.753906 6.390625 -4.144531 6.390625 -3.34375 L 6.390625 0 L 5.609375 0 L 5.609375 -3.265625 C 5.609375 -3.859375 5.457031 -4.3125 5.15625 -4.625 C 4.851562 -4.945312 4.425781 -5.109375 3.875 -5.109375 C 3.257812 -5.109375 2.769531 -4.921875 2.40625 -4.546875 C 2.039062 -4.179688 1.859375 -3.671875 1.859375 -3.015625 L 1.859375 0 L 1.078125 0 L 1.078125 -5.765625 L 1.828125 -5.765625 L 1.828125 -4.703125 C 2.035156 -5.046875 2.328125 -5.316406 2.703125 -5.515625 C 3.085938 -5.710938 3.523438 -5.8125 4.015625 -5.8125 Z M 4.015625 -5.8125 "/></g></g></g><g fill="#ffffff" fill-opacity="1"><g transform="translate(120.551859, 51.944114)"><g><path d="M 4.125 -0.34375 C 3.976562 -0.21875 3.796875 -0.117188 3.578125 -0.046875 C 3.359375 0.0234375 3.132812 0.0625 2.90625 0.0625 C 2.363281 0.0625 1.945312 -0.0820312 1.65625 -0.375 C 1.363281 -0.675781 1.21875 -1.09375 1.21875 -1.625 L 1.21875 -5.109375 L 0.1875 -5.109375 L 0.1875 -5.765625 L 1.21875 -5.765625 L 1.21875 -7.015625 L 2 -7.015625 L 2 -5.765625 L 3.75 -5.765625 L 3.75 -5.109375 L 2 -5.109375 L 2 -1.671875 C 2 -1.328125 2.082031 -1.0625 2.25 -0.875 C 2.425781 -0.695312 2.671875 -0.609375 2.984375 -0.609375 C 3.148438 -0.609375 3.304688 -0.632812 3.453125 -0.6875 C 3.609375 -0.738281 3.738281 -0.8125 3.84375 -0.90625 Z M 4.125 -0.34375 "/></g></g></g><g fill="#ffffff" fill-opacity="1"><g transform="translate(124.994952, 51.944114)"><g/></g></g><g fill="#ffffff" fill-opacity="1"><g transform="translate(127.862172, 51.944114)"><g><path d="M 1.375 -2.359375 C 1.207031 -2.359375 1.066406 -2.414062 0.953125 -2.53125 C 0.847656 -2.644531 0.796875 -2.789062 0.796875 -2.96875 C 0.796875 -3.144531 0.847656 -3.289062 0.953125 -3.40625 C 1.066406 -3.519531 1.207031 -3.578125 1.375 -3.578125 C 1.539062 -3.578125 1.679688 -3.519531 1.796875 -3.40625 C 1.910156 -3.289062 1.96875 -3.144531 1.96875 -2.96875 C 1.96875 -2.789062 1.910156 -2.644531 1.796875 -2.53125 C 1.679688 -2.414062 1.539062 -2.359375 1.375 -2.359375 Z M 1.375 -2.359375 "/></g></g></g><g fill="#ffffff" fill-opacity="1"><g transform="translate(130.619957, 51.944114)"><g/></g></g><g fill="#ffffff" fill-opacity="1"><g transform="translate(133.487177, 51.944114)"><g><path d="M 2.0625 -6.96875 L 2.0625 -3.953125 L 6.03125 -3.953125 L 6.03125 -3.25 L 2.0625 -3.25 L 2.0625 0 L 1.25 0 L 1.25 -7.671875 L 6.5 -7.671875 L 6.5 -6.96875 Z M 2.0625 -6.96875 "/></g></g></g><g fill="#ffffff" fill-opacity="1"><g transform="translate(140.414465, 51.944114)"><g><path d="M 6.28125 -5.765625 L 6.28125 0 L 5.53125 0 L 5.53125 -1.046875 C 5.320312 -0.703125 5.039062 -0.429688 4.6875 -0.234375 C 4.332031 -0.0351562 3.925781 0.0625 3.46875 0.0625 C 2.707031 0.0625 2.109375 -0.144531 1.671875 -0.5625 C 1.242188 -0.988281 1.03125 -1.609375 1.03125 -2.421875 L 1.03125 -5.765625 L 1.8125 -5.765625 L 1.8125 -2.5 C 1.8125 -1.894531 1.957031 -1.429688 2.25 -1.109375 C 2.550781 -0.796875 2.976562 -0.640625 3.53125 -0.640625 C 4.144531 -0.640625 4.625 -0.820312 4.96875 -1.1875 C 5.320312 -1.5625 5.5 -2.078125 5.5 -2.734375 L 5.5 -5.765625 Z M 6.28125 -5.765625 "/></g></g></g><g fill="#ffffff" fill-opacity="1"><g transform="translate(147.779501, 51.944114)"><g><path d="M 1.078125 -8.125 L 1.859375 -8.125 L 1.859375 0 L 1.078125 0 Z M 1.078125 -8.125 "/></g></g></g><g fill="#ffffff" fill-opacity="1"><g transform="translate(150.72333, 51.944114)"><g><path d="M 1.078125 -8.125 L 1.859375 -8.125 L 1.859375 0 L 1.078125 0 Z M 1.078125 -8.125 "/></g></g></g><g fill="#ffffff" fill-opacity="1"><g transform="translate(153.667159, 51.944114)"><g><path d="M 0.65625 -3.3125 L 3.53125 -3.3125 L 3.53125 -2.625 L 0.65625 -2.625 Z M 0.65625 -3.3125 "/></g></g></g><g fill="#ffffff" fill-opacity="1"><g transform="translate(157.847611, 51.944114)"><g><path d="M 4.125 -0.34375 C 3.976562 -0.21875 3.796875 -0.117188 3.578125 -0.046875 C 3.359375 0.0234375 3.132812 0.0625 2.90625 0.0625 C 2.363281 0.0625 1.945312 -0.0820312 1.65625 -0.375 C 1.363281 -0.675781 1.21875 -1.09375 1.21875 -1.625 L 1.21875 -5.109375 L 0.1875 -5.109375 L 0.1875 -5.765625 L 1.21875 -5.765625 L 1.21875 -7.015625 L 2 -7.015625 L 2 -5.765625 L 3.75 -5.765625 L 3.75 -5.109375 L 2 -5.109375 L 2 -1.671875 C 2 -1.328125 2.082031 -1.0625 2.25 -0.875 C 2.425781 -0.695312 2.671875 -0.609375 2.984375 -0.609375 C 3.148438 -0.609375 3.304688 -0.632812 3.453125 -0.6875 C 3.609375 -0.738281 3.738281 -0.8125 3.84375 -0.90625 Z M 4.125 -0.34375 "/></g></g></g><g fill="#ffffff" fill-opacity="1"><g transform="translate(162.290704, 51.944114)"><g><path d="M 1.078125 -5.765625 L 1.859375 -5.765625 L 1.859375 0 L 1.078125 0 Z M 1.484375 -7.015625 C 1.316406 -7.015625 1.175781 -7.066406 1.0625 -7.171875 C 0.957031 -7.285156 0.90625 -7.421875 0.90625 -7.578125 C 0.90625 -7.722656 0.957031 -7.847656 1.0625 -7.953125 C 1.175781 -8.066406 1.316406 -8.125 1.484375 -8.125 C 1.640625 -8.125 1.769531 -8.070312 1.875 -7.96875 C 1.988281 -7.863281 2.046875 -7.738281 2.046875 -7.59375 C 2.046875 -7.425781 1.988281 -7.285156 1.875 -7.171875 C 1.769531 -7.066406 1.640625 -7.015625 1.484375 -7.015625 Z M 1.484375 -7.015625 "/></g></g></g><g fill="#ffffff" fill-opacity="1"><g transform="translate(165.234534, 51.944114)"><g><path d="M 8.265625 -5.8125 C 8.992188 -5.8125 9.5625 -5.601562 9.96875 -5.1875 C 10.382812 -4.769531 10.59375 -4.15625 10.59375 -3.34375 L 10.59375 0 L 9.8125 0 L 9.8125 -3.265625 C 9.8125 -3.859375 9.664062 -4.3125 9.375 -4.625 C 9.09375 -4.945312 8.6875 -5.109375 8.15625 -5.109375 C 7.5625 -5.109375 7.09375 -4.921875 6.75 -4.546875 C 6.40625 -4.179688 6.234375 -3.671875 6.234375 -3.015625 L 6.234375 0 L 5.453125 0 L 5.453125 -3.265625 C 5.453125 -3.859375 5.304688 -4.3125 5.015625 -4.625 C 4.734375 -4.945312 4.328125 -5.109375 3.796875 -5.109375 C 3.203125 -5.109375 2.726562 -4.921875 2.375 -4.546875 C 2.03125 -4.179688 1.859375 -3.671875 1.859375 -3.015625 L 1.859375 0 L 1.078125 0 L 1.078125 -5.765625 L 1.828125 -5.765625 L 1.828125 -4.703125 C 2.035156 -5.054688 2.320312 -5.328125 2.6875 -5.515625 C 3.050781 -5.710938 3.46875 -5.8125 3.9375 -5.8125 C 4.425781 -5.8125 4.847656 -5.707031 5.203125 -5.5 C 5.554688 -5.289062 5.816406 -4.988281 5.984375 -4.59375 C 6.203125 -4.96875 6.507812 -5.265625 6.90625 -5.484375 C 7.300781 -5.703125 7.753906 -5.8125 8.265625 -5.8125 Z M 8.265625 -5.8125 "/></g></g></g><g fill="#ffffff" fill-opacity="1"><g transform="translate(176.845682, 51.944114)"><g><path d="M 6.09375 -2.640625 L 1.28125 -2.640625 C 1.320312 -2.035156 1.550781 -1.550781 1.96875 -1.1875 C 2.382812 -0.820312 2.910156 -0.640625 3.546875 -0.640625 C 3.898438 -0.640625 4.226562 -0.703125 4.53125 -0.828125 C 4.832031 -0.953125 5.09375 -1.140625 5.3125 -1.390625 L 5.75 -0.890625 C 5.488281 -0.578125 5.164062 -0.335938 4.78125 -0.171875 C 4.40625 -0.015625 3.988281 0.0625 3.53125 0.0625 C 2.9375 0.0625 2.410156 -0.0625 1.953125 -0.3125 C 1.492188 -0.570312 1.132812 -0.921875 0.875 -1.359375 C 0.625 -1.804688 0.5 -2.3125 0.5 -2.875 C 0.5 -3.4375 0.617188 -3.941406 0.859375 -4.390625 C 1.109375 -4.835938 1.445312 -5.1875 1.875 -5.4375 C 2.300781 -5.6875 2.78125 -5.8125 3.3125 -5.8125 C 3.851562 -5.8125 4.332031 -5.6875 4.75 -5.4375 C 5.175781 -5.1875 5.507812 -4.835938 5.75 -4.390625 C 5.988281 -3.953125 6.109375 -3.445312 6.109375 -2.875 Z M 3.3125 -5.140625 C 2.757812 -5.140625 2.296875 -4.960938 1.921875 -4.609375 C 1.546875 -4.253906 1.332031 -3.789062 1.28125 -3.21875 L 5.359375 -3.21875 C 5.316406 -3.789062 5.101562 -4.253906 4.71875 -4.609375 C 4.34375 -4.960938 3.875 -5.140625 3.3125 -5.140625 Z M 3.3125 -5.140625 "/></g></g></g><g fill="#9f9f9f" fill-opacity="1"><g transform="translate(52.931417, 71.341259)"><g><path d="M 1.5 0.046875 C 1.1875 0.046875 0.894531 -0.0195312 0.625 -0.15625 C 0.351562 -0.289062 0.128906 -0.488281 -0.046875 -0.75 L 0.3125 -1.140625 C 0.613281 -0.691406 1.015625 -0.46875 1.515625 -0.46875 C 2.203125 -0.46875 2.546875 -0.875 2.546875 -1.6875 L 2.546875 -5.0625 L 0.515625 -5.0625 L 0.515625 -5.578125 L 3.125 -5.578125 L 3.125 -1.71875 C 3.125 -1.132812 2.988281 -0.691406 2.71875 -0.390625 C 2.445312 -0.0976562 2.039062 0.046875 1.5 0.046875 Z M 1.5 0.046875 "/></g></g></g><g fill="#9f9f9f" fill-opacity="1"><g transform="translate(56.921705, 71.341259)"><g><path d="M 4.5625 -4.1875 L 4.5625 0 L 4.03125 0 L 4.03125 -0.765625 C 3.875 -0.503906 3.664062 -0.300781 3.40625 -0.15625 C 3.144531 -0.0195312 2.847656 0.046875 2.515625 0.046875 C 1.972656 0.046875 1.539062 -0.101562 1.21875 -0.40625 C 0.90625 -0.71875 0.75 -1.171875 0.75 -1.765625 L 0.75 -4.1875 L 1.3125 -4.1875 L 1.3125 -1.8125 C 1.3125 -1.375 1.421875 -1.039062 1.640625 -0.8125 C 1.859375 -0.582031 2.171875 -0.46875 2.578125 -0.46875 C 3.015625 -0.46875 3.359375 -0.601562 3.609375 -0.875 C 3.867188 -1.144531 4 -1.515625 4 -1.984375 L 4 -4.1875 Z M 4.5625 -4.1875 "/></g></g></g><g fill="#9f9f9f" fill-opacity="1"><g transform="translate(62.28191, 71.341259)"><g><path d="M 2.921875 -4.21875 C 3.453125 -4.21875 3.867188 -4.066406 4.171875 -3.765625 C 4.484375 -3.460938 4.640625 -3.019531 4.640625 -2.4375 L 4.640625 0 L 4.078125 0 L 4.078125 -2.375 C 4.078125 -2.8125 3.96875 -3.144531 3.75 -3.375 C 3.53125 -3.601562 3.222656 -3.71875 2.828125 -3.71875 C 2.367188 -3.71875 2.007812 -3.582031 1.75 -3.3125 C 1.488281 -3.039062 1.359375 -2.671875 1.359375 -2.203125 L 1.359375 0 L 0.78125 0 L 0.78125 -4.1875 L 1.328125 -4.1875 L 1.328125 -3.421875 C 1.484375 -3.671875 1.695312 -3.863281 1.96875 -4 C 2.238281 -4.144531 2.554688 -4.21875 2.921875 -4.21875 Z M 2.921875 -4.21875 "/></g></g></g><g fill="#9f9f9f" fill-opacity="1"><g transform="translate(67.673976, 71.341259)"><g/></g></g><g fill="#9f9f9f" fill-opacity="1"><g transform="translate(69.760718, 71.341259)"><g><path d="M 4.21875 -0.515625 L 4.21875 0 L 0.3125 0 L 0.3125 -0.40625 L 2.625 -2.671875 C 2.914062 -2.960938 3.113281 -3.210938 3.21875 -3.421875 C 3.320312 -3.628906 3.375 -3.84375 3.375 -4.0625 C 3.375 -4.382812 3.257812 -4.632812 3.03125 -4.8125 C 2.8125 -5 2.492188 -5.09375 2.078125 -5.09375 C 1.421875 -5.09375 0.910156 -4.890625 0.546875 -4.484375 L 0.140625 -4.828125 C 0.359375 -5.085938 0.632812 -5.285156 0.96875 -5.421875 C 1.3125 -5.554688 1.695312 -5.625 2.125 -5.625 C 2.6875 -5.625 3.132812 -5.488281 3.46875 -5.21875 C 3.800781 -4.957031 3.96875 -4.59375 3.96875 -4.125 C 3.96875 -3.832031 3.898438 -3.550781 3.765625 -3.28125 C 3.640625 -3.019531 3.398438 -2.71875 3.046875 -2.375 L 1.15625 -0.515625 Z M 4.21875 -0.515625 "/></g></g></g><g fill="#9f9f9f" fill-opacity="1"><g transform="translate(74.284645, 71.341259)"><g><path d="M 2.640625 0.046875 C 2.203125 0.046875 1.816406 -0.0664062 1.484375 -0.296875 C 1.148438 -0.523438 0.890625 -0.851562 0.703125 -1.28125 C 0.515625 -1.707031 0.421875 -2.207031 0.421875 -2.78125 C 0.421875 -3.363281 0.515625 -3.867188 0.703125 -4.296875 C 0.890625 -4.722656 1.148438 -5.050781 1.484375 -5.28125 C 1.816406 -5.507812 2.203125 -5.625 2.640625 -5.625 C 3.066406 -5.625 3.445312 -5.507812 3.78125 -5.28125 C 4.125 -5.050781 4.390625 -4.722656 4.578125 -4.296875 C 4.773438 -3.867188 4.875 -3.363281 4.875 -2.78125 C 4.875 -2.207031 4.773438 -1.707031 4.578125 -1.28125 C 4.390625 -0.851562 4.125 -0.523438 3.78125 -0.296875 C 3.445312 -0.0664062 3.066406 0.046875 2.640625 0.046875 Z M 2.640625 -0.484375 C 2.960938 -0.484375 3.242188 -0.570312 3.484375 -0.75 C 3.734375 -0.925781 3.925781 -1.1875 4.0625 -1.53125 C 4.207031 -1.882812 4.28125 -2.300781 4.28125 -2.78125 C 4.28125 -3.269531 4.207031 -3.6875 4.0625 -4.03125 C 3.925781 -4.382812 3.734375 -4.648438 3.484375 -4.828125 C 3.242188 -5.003906 2.960938 -5.09375 2.640625 -5.09375 C 2.316406 -5.09375 2.03125 -5.003906 1.78125 -4.828125 C 1.53125 -4.648438 1.335938 -4.382812 1.203125 -4.03125 C 1.066406 -3.6875 1 -3.269531 1 -2.78125 C 1 -2.300781 1.066406 -1.882812 1.203125 -1.53125 C 1.335938 -1.1875 1.53125 -0.925781 1.78125 -0.75 C 2.03125 -0.570312 2.316406 -0.484375 2.640625 -0.484375 Z M 2.640625 -0.484375 "/></g></g></g><g fill="#9f9f9f" fill-opacity="1"><g transform="translate(79.557247, 71.341259)"><g><path d="M 4.21875 -0.515625 L 4.21875 0 L 0.3125 0 L 0.3125 -0.40625 L 2.625 -2.671875 C 2.914062 -2.960938 3.113281 -3.210938 3.21875 -3.421875 C 3.320312 -3.628906 3.375 -3.84375 3.375 -4.0625 C 3.375 -4.382812 3.257812 -4.632812 3.03125 -4.8125 C 2.8125 -5 2.492188 -5.09375 2.078125 -5.09375 C 1.421875 -5.09375 0.910156 -4.890625 0.546875 -4.484375 L 0.140625 -4.828125 C 0.359375 -5.085938 0.632812 -5.285156 0.96875 -5.421875 C 1.3125 -5.554688 1.695312 -5.625 2.125 -5.625 C 2.6875 -5.625 3.132812 -5.488281 3.46875 -5.21875 C 3.800781 -4.957031 3.96875 -4.59375 3.96875 -4.125 C 3.96875 -3.832031 3.898438 -3.550781 3.765625 -3.28125 C 3.640625 -3.019531 3.398438 -2.71875 3.046875 -2.375 L 1.15625 -0.515625 Z M 4.21875 -0.515625 "/></g></g></g><g fill="#9f9f9f" fill-opacity="1"><g transform="translate(84.081174, 71.341259)"><g><path d="M 5.15625 -1.46875 L 4.046875 -1.46875 L 4.046875 0 L 3.46875 0 L 3.46875 -1.46875 L 0.3125 -1.46875 L 0.3125 -1.875 L 3.28125 -5.578125 L 3.90625 -5.578125 L 1.0625 -1.96875 L 3.484375 -1.96875 L 3.484375 -3.265625 L 4.046875 -3.265625 L 4.046875 -1.96875 L 5.15625 -1.96875 Z M 5.15625 -1.46875 "/></g></g></g><g fill="#9f9f9f" fill-opacity="1"><g transform="translate(89.345806, 71.341259)"><g/></g></g><g fill="#9f9f9f" fill-opacity="1"><g transform="translate(91.432548, 71.341259)"><g><path d="M 0.484375 -2.40625 L 2.5625 -2.40625 L 2.5625 -1.90625 L 0.484375 -1.90625 Z M 0.484375 -2.40625 "/></g></g></g><g fill="#9f9f9f" fill-opacity="1"><g transform="translate(94.475043, 71.341259)"><g/></g></g><g fill="#9f9f9f" fill-opacity="1"><g transform="translate(96.561785, 71.341259)"><g><path d="M 3 -5.578125 C 3.707031 -5.578125 4.265625 -5.40625 4.671875 -5.0625 C 5.078125 -4.726562 5.28125 -4.265625 5.28125 -3.671875 C 5.28125 -3.066406 5.078125 -2.597656 4.671875 -2.265625 C 4.265625 -1.929688 3.707031 -1.765625 3 -1.765625 L 1.5 -1.765625 L 1.5 0 L 0.90625 0 L 0.90625 -5.578125 Z M 2.984375 -2.28125 C 3.535156 -2.28125 3.957031 -2.398438 4.25 -2.640625 C 4.539062 -2.878906 4.6875 -3.222656 4.6875 -3.671875 C 4.6875 -4.117188 4.539062 -4.460938 4.25 -4.703125 C 3.957031 -4.941406 3.535156 -5.0625 2.984375 -5.0625 L 1.5 -5.0625 L 1.5 -2.28125 Z M 2.984375 -2.28125 "/></g></g></g><g fill="#9f9f9f" fill-opacity="1"><g transform="translate(102.280403, 71.341259)"><g><path d="M 1.328125 -3.375 C 1.460938 -3.65625 1.660156 -3.863281 1.921875 -4 C 2.179688 -4.144531 2.507812 -4.21875 2.90625 -4.21875 L 2.90625 -3.671875 L 2.765625 -3.6875 C 2.328125 -3.6875 1.984375 -3.550781 1.734375 -3.28125 C 1.484375 -3.007812 1.359375 -2.628906 1.359375 -2.140625 L 1.359375 0 L 0.78125 0 L 0.78125 -4.1875 L 1.328125 -4.1875 Z M 1.328125 -3.375 "/></g></g></g><g fill="#9f9f9f" fill-opacity="1"><g transform="translate(105.474223, 71.341259)"><g><path d="M 4.4375 -1.921875 L 0.9375 -1.921875 C 0.96875 -1.484375 1.132812 -1.128906 1.4375 -0.859375 C 1.738281 -0.597656 2.117188 -0.46875 2.578125 -0.46875 C 2.835938 -0.46875 3.078125 -0.507812 3.296875 -0.59375 C 3.515625 -0.6875 3.703125 -0.828125 3.859375 -1.015625 L 4.1875 -0.640625 C 4 -0.421875 3.765625 -0.25 3.484375 -0.125 C 3.203125 -0.0078125 2.894531 0.046875 2.5625 0.046875 C 2.132812 0.046875 1.753906 -0.046875 1.421875 -0.234375 C 1.085938 -0.421875 0.828125 -0.675781 0.640625 -1 C 0.453125 -1.320312 0.359375 -1.6875 0.359375 -2.09375 C 0.359375 -2.5 0.445312 -2.863281 0.625 -3.1875 C 0.8125 -3.519531 1.054688 -3.773438 1.359375 -3.953125 C 1.671875 -4.128906 2.023438 -4.21875 2.421875 -4.21875 C 2.804688 -4.21875 3.148438 -4.128906 3.453125 -3.953125 C 3.765625 -3.773438 4.007812 -3.523438 4.1875 -3.203125 C 4.363281 -2.878906 4.453125 -2.507812 4.453125 -2.09375 Z M 2.421875 -3.734375 C 2.015625 -3.734375 1.671875 -3.601562 1.390625 -3.34375 C 1.117188 -3.09375 0.96875 -2.757812 0.9375 -2.34375 L 3.90625 -2.34375 C 3.863281 -2.757812 3.707031 -3.09375 3.4375 -3.34375 C 3.164062 -3.601562 2.828125 -3.734375 2.421875 -3.734375 Z M 2.421875 -3.734375 "/></g></g></g><g fill="#9f9f9f" fill-opacity="1"><g transform="translate(110.28487, 71.341259)"><g><path d="M 1.90625 0.046875 C 1.570312 0.046875 1.25 0 0.9375 -0.09375 C 0.625 -0.195312 0.378906 -0.328125 0.203125 -0.484375 L 0.46875 -0.921875 C 0.632812 -0.785156 0.847656 -0.671875 1.109375 -0.578125 C 1.378906 -0.492188 1.660156 -0.453125 1.953125 -0.453125 C 2.335938 -0.453125 2.617188 -0.507812 2.796875 -0.625 C 2.984375 -0.75 3.078125 -0.921875 3.078125 -1.140625 C 3.078125 -1.296875 3.023438 -1.414062 2.921875 -1.5 C 2.816406 -1.59375 2.6875 -1.660156 2.53125 -1.703125 C 2.382812 -1.742188 2.179688 -1.785156 1.921875 -1.828125 C 1.585938 -1.890625 1.316406 -1.953125 1.109375 -2.015625 C 0.898438 -2.085938 0.722656 -2.203125 0.578125 -2.359375 C 0.429688 -2.523438 0.359375 -2.75 0.359375 -3.03125 C 0.359375 -3.375 0.503906 -3.65625 0.796875 -3.875 C 1.085938 -4.101562 1.492188 -4.21875 2.015625 -4.21875 C 2.285156 -4.21875 2.554688 -4.179688 2.828125 -4.109375 C 3.097656 -4.046875 3.320312 -3.953125 3.5 -3.828125 L 3.25 -3.375 C 2.90625 -3.613281 2.492188 -3.734375 2.015625 -3.734375 C 1.648438 -3.734375 1.375 -3.671875 1.1875 -3.546875 C 1.007812 -3.421875 0.921875 -3.253906 0.921875 -3.046875 C 0.921875 -2.890625 0.972656 -2.757812 1.078125 -2.65625 C 1.179688 -2.5625 1.3125 -2.488281 1.46875 -2.4375 C 1.625 -2.394531 1.835938 -2.351562 2.109375 -2.3125 C 2.441406 -2.25 2.707031 -2.1875 2.90625 -2.125 C 3.113281 -2.0625 3.285156 -1.953125 3.421875 -1.796875 C 3.566406 -1.640625 3.640625 -1.425781 3.640625 -1.15625 C 3.640625 -0.789062 3.484375 -0.5 3.171875 -0.28125 C 2.867188 -0.0625 2.445312 0.046875 1.90625 0.046875 Z M 1.90625 0.046875 "/></g></g></g><g fill="#9f9f9f" fill-opacity="1"><g transform="translate(114.179584, 71.341259)"><g><path d="M 4.4375 -1.921875 L 0.9375 -1.921875 C 0.96875 -1.484375 1.132812 -1.128906 1.4375 -0.859375 C 1.738281 -0.597656 2.117188 -0.46875 2.578125 -0.46875 C 2.835938 -0.46875 3.078125 -0.507812 3.296875 -0.59375 C 3.515625 -0.6875 3.703125 -0.828125 3.859375 -1.015625 L 4.1875 -0.640625 C 4 -0.421875 3.765625 -0.25 3.484375 -0.125 C 3.203125 -0.0078125 2.894531 0.046875 2.5625 0.046875 C 2.132812 0.046875 1.753906 -0.046875 1.421875 -0.234375 C 1.085938 -0.421875 0.828125 -0.675781 0.640625 -1 C 0.453125 -1.320312 0.359375 -1.6875 0.359375 -2.09375 C 0.359375 -2.5 0.445312 -2.863281 0.625 -3.1875 C 0.8125 -3.519531 1.054688 -3.773438 1.359375 -3.953125 C 1.671875 -4.128906 2.023438 -4.21875 2.421875 -4.21875 C 2.804688 -4.21875 3.148438 -4.128906 3.453125 -3.953125 C 3.765625 -3.773438 4.007812 -3.523438 4.1875 -3.203125 C 4.363281 -2.878906 4.453125 -2.507812 4.453125 -2.09375 Z M 2.421875 -3.734375 C 2.015625 -3.734375 1.671875 -3.601562 1.390625 -3.34375 C 1.117188 -3.09375 0.96875 -2.757812 0.9375 -2.34375 L 3.90625 -2.34375 C 3.863281 -2.757812 3.707031 -3.09375 3.4375 -3.34375 C 3.164062 -3.601562 2.828125 -3.734375 2.421875 -3.734375 Z M 2.421875 -3.734375 "/></g></g></g><g fill="#9f9f9f" fill-opacity="1"><g transform="translate(118.990231, 71.341259)"><g><path d="M 2.921875 -4.21875 C 3.453125 -4.21875 3.867188 -4.066406 4.171875 -3.765625 C 4.484375 -3.460938 4.640625 -3.019531 4.640625 -2.4375 L 4.640625 0 L 4.078125 0 L 4.078125 -2.375 C 4.078125 -2.8125 3.96875 -3.144531 3.75 -3.375 C 3.53125 -3.601562 3.222656 -3.71875 2.828125 -3.71875 C 2.367188 -3.71875 2.007812 -3.582031 1.75 -3.3125 C 1.488281 -3.039062 1.359375 -2.671875 1.359375 -2.203125 L 1.359375 0 L 0.78125 0 L 0.78125 -4.1875 L 1.328125 -4.1875 L 1.328125 -3.421875 C 1.484375 -3.671875 1.695312 -3.863281 1.96875 -4 C 2.238281 -4.144531 2.554688 -4.21875 2.921875 -4.21875 Z M 2.921875 -4.21875 "/></g></g></g><g fill="#9f9f9f" fill-opacity="1"><g transform="translate(124.382297, 71.341259)"><g><path d="M 3 -0.25 C 2.894531 -0.15625 2.757812 -0.0820312 2.59375 -0.03125 C 2.4375 0.0195312 2.273438 0.046875 2.109375 0.046875 C 1.710938 0.046875 1.410156 -0.0546875 1.203125 -0.265625 C 0.992188 -0.484375 0.890625 -0.785156 0.890625 -1.171875 L 0.890625 -3.71875 L 0.140625 -3.71875 L 0.140625 -4.1875 L 0.890625 -4.1875 L 0.890625 -5.109375 L 1.453125 -5.109375 L 1.453125 -4.1875 L 2.71875 -4.1875 L 2.71875 -3.71875 L 1.453125 -3.71875 L 1.453125 -1.21875 C 1.453125 -0.96875 1.515625 -0.773438 1.640625 -0.640625 C 1.765625 -0.515625 1.941406 -0.453125 2.171875 -0.453125 C 2.285156 -0.453125 2.394531 -0.46875 2.5 -0.5 C 2.613281 -0.539062 2.710938 -0.59375 2.796875 -0.65625 Z M 3 -0.25 "/></g></g></g><g fill="#9f9f9f" fill-opacity="1"><g transform="translate(52.931417, 86.280021)"><g><path d="M 3 -5.578125 C 3.707031 -5.578125 4.265625 -5.40625 4.671875 -5.0625 C 5.078125 -4.726562 5.28125 -4.265625 5.28125 -3.671875 C 5.28125 -3.066406 5.078125 -2.597656 4.671875 -2.265625 C 4.265625 -1.929688 3.707031 -1.765625 3 -1.765625 L 1.5 -1.765625 L 1.5 0 L 0.90625 0 L 0.90625 -5.578125 Z M 2.984375 -2.28125 C 3.535156 -2.28125 3.957031 -2.398438 4.25 -2.640625 C 4.539062 -2.878906 4.6875 -3.222656 4.6875 -3.671875 C 4.6875 -4.117188 4.539062 -4.460938 4.25 -4.703125 C 3.957031 -4.941406 3.535156 -5.0625 2.984375 -5.0625 L 1.5 -5.0625 L 1.5 -2.28125 Z M 2.984375 -2.28125 "/></g></g></g><g fill="#9f9f9f" fill-opacity="1"><g transform="translate(58.650034, 86.280021)"><g><path d="M 2.5 0.046875 C 2.09375 0.046875 1.726562 -0.046875 1.40625 -0.234375 C 1.082031 -0.421875 0.828125 -0.675781 0.640625 -1 C 0.453125 -1.320312 0.359375 -1.6875 0.359375 -2.09375 C 0.359375 -2.5 0.453125 -2.863281 0.640625 -3.1875 C 0.828125 -3.519531 1.082031 -3.773438 1.40625 -3.953125 C 1.726562 -4.128906 2.09375 -4.21875 2.5 -4.21875 C 2.90625 -4.21875 3.269531 -4.128906 3.59375 -3.953125 C 3.914062 -3.773438 4.164062 -3.519531 4.34375 -3.1875 C 4.53125 -2.863281 4.625 -2.5 4.625 -2.09375 C 4.625 -1.6875 4.53125 -1.320312 4.34375 -1 C 4.164062 -0.675781 3.914062 -0.421875 3.59375 -0.234375 C 3.269531 -0.046875 2.90625 0.046875 2.5 0.046875 Z M 2.5 -0.46875 C 2.800781 -0.46875 3.066406 -0.535156 3.296875 -0.671875 C 3.535156 -0.804688 3.722656 -1 3.859375 -1.25 C 3.992188 -1.5 4.0625 -1.78125 4.0625 -2.09375 C 4.0625 -2.414062 3.992188 -2.703125 3.859375 -2.953125 C 3.722656 -3.203125 3.535156 -3.394531 3.296875 -3.53125 C 3.066406 -3.664062 2.800781 -3.734375 2.5 -3.734375 C 2.207031 -3.734375 1.941406 -3.664062 1.703125 -3.53125 C 1.460938 -3.394531 1.273438 -3.203125 1.140625 -2.953125 C 1.003906 -2.703125 0.9375 -2.414062 0.9375 -2.09375 C 0.9375 -1.78125 1.003906 -1.5 1.140625 -1.25 C 1.273438 -1 1.460938 -0.804688 1.703125 -0.671875 C 1.941406 -0.535156 2.207031 -0.46875 2.5 -0.46875 Z M 2.5 -0.46875 "/></g></g></g><g fill="#9f9f9f" fill-opacity="1"><g transform="translate(63.643867, 86.280021)"><g><path d="M 1.328125 -3.375 C 1.460938 -3.65625 1.660156 -3.863281 1.921875 -4 C 2.179688 -4.144531 2.507812 -4.21875 2.90625 -4.21875 L 2.90625 -3.671875 L 2.765625 -3.6875 C 2.328125 -3.6875 1.984375 -3.550781 1.734375 -3.28125 C 1.484375 -3.007812 1.359375 -2.628906 1.359375 -2.140625 L 1.359375 0 L 0.78125 0 L 0.78125 -4.1875 L 1.328125 -4.1875 Z M 1.328125 -3.375 "/></g></g></g><g fill="#9f9f9f" fill-opacity="1"><g transform="translate(66.837687, 86.280021)"><g><path d="M 3 -0.25 C 2.894531 -0.15625 2.757812 -0.0820312 2.59375 -0.03125 C 2.4375 0.0195312 2.273438 0.046875 2.109375 0.046875 C 1.710938 0.046875 1.410156 -0.0546875 1.203125 -0.265625 C 0.992188 -0.484375 0.890625 -0.785156 0.890625 -1.171875 L 0.890625 -3.71875 L 0.140625 -3.71875 L 0.140625 -4.1875 L 0.890625 -4.1875 L 0.890625 -5.109375 L 1.453125 -5.109375 L 1.453125 -4.1875 L 2.71875 -4.1875 L 2.71875 -3.71875 L 1.453125 -3.71875 L 1.453125 -1.21875 C 1.453125 -0.96875 1.515625 -0.773438 1.640625 -0.640625 C 1.765625 -0.515625 1.941406 -0.453125 2.171875 -0.453125 C 2.285156 -0.453125 2.394531 -0.46875 2.5 -0.5 C 2.613281 -0.539062 2.710938 -0.59375 2.796875 -0.65625 Z M 3 -0.25 "/></g></g></g><g fill="#9f9f9f" fill-opacity="1"><g transform="translate(70.071339, 86.280021)"><g><path d="M 4.5625 -4.1875 L 4.5625 0 L 4.03125 0 L 4.03125 -0.765625 C 3.875 -0.503906 3.664062 -0.300781 3.40625 -0.15625 C 3.144531 -0.0195312 2.847656 0.046875 2.515625 0.046875 C 1.972656 0.046875 1.539062 -0.101562 1.21875 -0.40625 C 0.90625 -0.71875 0.75 -1.171875 0.75 -1.765625 L 0.75 -4.1875 L 1.3125 -4.1875 L 1.3125 -1.8125 C 1.3125 -1.375 1.421875 -1.039062 1.640625 -0.8125 C 1.859375 -0.582031 2.171875 -0.46875 2.578125 -0.46875 C 3.015625 -0.46875 3.359375 -0.601562 3.609375 -0.875 C 3.867188 -1.144531 4 -1.515625 4 -1.984375 L 4 -4.1875 Z M 4.5625 -4.1875 "/></g></g></g><g fill="#9f9f9f" fill-opacity="1"><g transform="translate(75.431544, 86.280021)"><g><path d="M 4.671875 -4.1875 L 4.671875 -0.515625 C 4.671875 0.203125 4.492188 0.726562 4.140625 1.0625 C 3.796875 1.40625 3.273438 1.578125 2.578125 1.578125 C 2.179688 1.578125 1.8125 1.519531 1.46875 1.40625 C 1.125 1.300781 0.84375 1.144531 0.625 0.9375 L 0.90625 0.515625 C 1.113281 0.691406 1.359375 0.828125 1.640625 0.921875 C 1.929688 1.023438 2.238281 1.078125 2.5625 1.078125 C 3.09375 1.078125 3.484375 0.953125 3.734375 0.703125 C 3.984375 0.460938 4.109375 0.0820312 4.109375 -0.4375 L 4.109375 -0.96875 C 3.929688 -0.707031 3.695312 -0.503906 3.40625 -0.359375 C 3.125 -0.222656 2.8125 -0.15625 2.46875 -0.15625 C 2.070312 -0.15625 1.710938 -0.238281 1.390625 -0.40625 C 1.078125 -0.582031 0.828125 -0.828125 0.640625 -1.140625 C 0.453125 -1.453125 0.359375 -1.804688 0.359375 -2.203125 C 0.359375 -2.585938 0.453125 -2.9375 0.640625 -3.25 C 0.828125 -3.5625 1.078125 -3.800781 1.390625 -3.96875 C 1.710938 -4.132812 2.070312 -4.21875 2.46875 -4.21875 C 2.820312 -4.21875 3.140625 -4.144531 3.421875 -4 C 3.710938 -3.863281 3.945312 -3.660156 4.125 -3.390625 L 4.125 -4.1875 Z M 2.53125 -0.65625 C 2.832031 -0.65625 3.101562 -0.71875 3.34375 -0.84375 C 3.59375 -0.976562 3.785156 -1.160156 3.921875 -1.390625 C 4.054688 -1.628906 4.125 -1.898438 4.125 -2.203125 C 4.125 -2.492188 4.054688 -2.753906 3.921875 -2.984375 C 3.785156 -3.222656 3.59375 -3.40625 3.34375 -3.53125 C 3.101562 -3.664062 2.832031 -3.734375 2.53125 -3.734375 C 2.226562 -3.734375 1.953125 -3.664062 1.703125 -3.53125 C 1.460938 -3.40625 1.273438 -3.222656 1.140625 -2.984375 C 1.003906 -2.753906 0.9375 -2.492188 0.9375 -2.203125 C 0.9375 -1.898438 1.003906 -1.628906 1.140625 -1.390625 C 1.273438 -1.160156 1.460938 -0.976562 1.703125 -0.84375 C 1.953125 -0.71875 2.226562 -0.65625 2.53125 -0.65625 Z M 2.53125 -0.65625 "/></g></g></g><g fill="#9f9f9f" fill-opacity="1"><g transform="translate(80.895293, 86.280021)"><g><path d="M 2.25 -4.21875 C 2.800781 -4.21875 3.222656 -4.082031 3.515625 -3.8125 C 3.804688 -3.539062 3.953125 -3.132812 3.953125 -2.59375 L 3.953125 0 L 3.40625 0 L 3.40625 -0.65625 C 3.28125 -0.4375 3.09375 -0.265625 2.84375 -0.140625 C 2.601562 -0.015625 2.3125 0.046875 1.96875 0.046875 C 1.5 0.046875 1.125 -0.0625 0.84375 -0.28125 C 0.570312 -0.507812 0.4375 -0.804688 0.4375 -1.171875 C 0.4375 -1.535156 0.566406 -1.820312 0.828125 -2.03125 C 1.085938 -2.25 1.5 -2.359375 2.0625 -2.359375 L 3.390625 -2.359375 L 3.390625 -2.625 C 3.390625 -2.976562 3.285156 -3.25 3.078125 -3.4375 C 2.878906 -3.632812 2.585938 -3.734375 2.203125 -3.734375 C 1.929688 -3.734375 1.671875 -3.6875 1.421875 -3.59375 C 1.179688 -3.507812 0.976562 -3.390625 0.8125 -3.234375 L 0.546875 -3.65625 C 0.765625 -3.832031 1.019531 -3.96875 1.3125 -4.0625 C 1.613281 -4.164062 1.925781 -4.21875 2.25 -4.21875 Z M 2.0625 -0.40625 C 2.375 -0.40625 2.644531 -0.476562 2.875 -0.625 C 3.101562 -0.769531 3.273438 -0.984375 3.390625 -1.265625 L 3.390625 -1.9375 L 2.078125 -1.9375 C 1.359375 -1.9375 1 -1.6875 1 -1.1875 C 1 -0.945312 1.085938 -0.753906 1.265625 -0.609375 C 1.453125 -0.472656 1.71875 -0.40625 2.0625 -0.40625 Z M 2.0625 -0.40625 "/></g></g></g><g fill="#9f9f9f" fill-opacity="1"><g transform="translate(85.594436, 86.280021)"><g><path d="M 0.78125 -5.90625 L 1.359375 -5.90625 L 1.359375 0 L 0.78125 0 Z M 0.78125 -5.90625 "/></g></g></g><g fill="#9f9f9f" fill-opacity="1"><g transform="translate(87.73693, 86.280021)"><g/></g></g><g fill="#9f9f9f" fill-opacity="1"><g transform="translate(89.823672, 86.280021)"><g><path d="M 1 -1.71875 C 0.882812 -1.71875 0.785156 -1.757812 0.703125 -1.84375 C 0.617188 -1.925781 0.578125 -2.03125 0.578125 -2.15625 C 0.578125 -2.28125 0.617188 -2.382812 0.703125 -2.46875 C 0.785156 -2.550781 0.882812 -2.59375 1 -2.59375 C 1.125 -2.59375 1.226562 -2.550781 1.3125 -2.46875 C 1.394531 -2.382812 1.4375 -2.28125 1.4375 -2.15625 C 1.4375 -2.03125 1.394531 -1.925781 1.3125 -1.84375 C 1.226562 -1.757812 1.125 -1.71875 1 -1.71875 Z M 1 -1.71875 "/></g></g></g><g fill="#9f9f9f" fill-opacity="1"><g transform="translate(91.830761, 86.280021)"><g/></g></g><g fill="#9f9f9f" fill-opacity="1"><g transform="translate(93.917504, 86.280021)"><g><path d="M 4.71875 0 L 3.4375 -1.796875 C 3.300781 -1.773438 3.15625 -1.765625 3 -1.765625 L 1.5 -1.765625 L 1.5 0 L 0.90625 0 L 0.90625 -5.578125 L 3 -5.578125 C 3.707031 -5.578125 4.265625 -5.40625 4.671875 -5.0625 C 5.078125 -4.726562 5.28125 -4.265625 5.28125 -3.671875 C 5.28125 -3.234375 5.164062 -2.863281 4.9375 -2.5625 C 4.71875 -2.257812 4.40625 -2.039062 4 -1.90625 L 5.359375 0 Z M 2.984375 -2.265625 C 3.535156 -2.265625 3.957031 -2.382812 4.25 -2.625 C 4.539062 -2.875 4.6875 -3.222656 4.6875 -3.671875 C 4.6875 -4.117188 4.539062 -4.460938 4.25 -4.703125 C 3.957031 -4.941406 3.535156 -5.0625 2.984375 -5.0625 L 1.5 -5.0625 L 1.5 -2.265625 Z M 2.984375 -2.265625 "/></g></g></g><g fill="#9f9f9f" fill-opacity="1"><g transform="translate(99.675943, 86.280021)"><g><path d="M 4.4375 -1.921875 L 0.9375 -1.921875 C 0.96875 -1.484375 1.132812 -1.128906 1.4375 -0.859375 C 1.738281 -0.597656 2.117188 -0.46875 2.578125 -0.46875 C 2.835938 -0.46875 3.078125 -0.507812 3.296875 -0.59375 C 3.515625 -0.6875 3.703125 -0.828125 3.859375 -1.015625 L 4.1875 -0.640625 C 4 -0.421875 3.765625 -0.25 3.484375 -0.125 C 3.203125 -0.0078125 2.894531 0.046875 2.5625 0.046875 C 2.132812 0.046875 1.753906 -0.046875 1.421875 -0.234375 C 1.085938 -0.421875 0.828125 -0.675781 0.640625 -1 C 0.453125 -1.320312 0.359375 -1.6875 0.359375 -2.09375 C 0.359375 -2.5 0.445312 -2.863281 0.625 -3.1875 C 0.8125 -3.519531 1.054688 -3.773438 1.359375 -3.953125 C 1.671875 -4.128906 2.023438 -4.21875 2.421875 -4.21875 C 2.804688 -4.21875 3.148438 -4.128906 3.453125 -3.953125 C 3.765625 -3.773438 4.007812 -3.523438 4.1875 -3.203125 C 4.363281 -2.878906 4.453125 -2.507812 4.453125 -2.09375 Z M 2.421875 -3.734375 C 2.015625 -3.734375 1.671875 -3.601562 1.390625 -3.34375 C 1.117188 -3.09375 0.96875 -2.757812 0.9375 -2.34375 L 3.90625 -2.34375 C 3.863281 -2.757812 3.707031 -3.09375 3.4375 -3.34375 C 3.164062 -3.601562 2.828125 -3.734375 2.421875 -3.734375 Z M 2.421875 -3.734375 "/></g></g></g><g fill="#9f9f9f" fill-opacity="1"><g transform="translate(104.486589, 86.280021)"><g><path d="M 6.015625 -4.21875 C 6.546875 -4.21875 6.957031 -4.066406 7.25 -3.765625 C 7.550781 -3.460938 7.703125 -3.019531 7.703125 -2.4375 L 7.703125 0 L 7.140625 0 L 7.140625 -2.375 C 7.140625 -2.8125 7.035156 -3.144531 6.828125 -3.375 C 6.617188 -3.601562 6.320312 -3.71875 5.9375 -3.71875 C 5.5 -3.71875 5.15625 -3.582031 4.90625 -3.3125 C 4.65625 -3.039062 4.53125 -2.671875 4.53125 -2.203125 L 4.53125 0 L 3.96875 0 L 3.96875 -2.375 C 3.96875 -2.8125 3.863281 -3.144531 3.65625 -3.375 C 3.445312 -3.601562 3.144531 -3.71875 2.75 -3.71875 C 2.320312 -3.71875 1.984375 -3.582031 1.734375 -3.3125 C 1.484375 -3.039062 1.359375 -2.671875 1.359375 -2.203125 L 1.359375 0 L 0.78125 0 L 0.78125 -4.1875 L 1.328125 -4.1875 L 1.328125 -3.421875 C 1.472656 -3.679688 1.675781 -3.878906 1.9375 -4.015625 C 2.207031 -4.148438 2.519531 -4.21875 2.875 -4.21875 C 3.21875 -4.21875 3.519531 -4.144531 3.78125 -4 C 4.039062 -3.851562 4.234375 -3.632812 4.359375 -3.34375 C 4.515625 -3.613281 4.734375 -3.828125 5.015625 -3.984375 C 5.304688 -4.140625 5.640625 -4.21875 6.015625 -4.21875 Z M 6.015625 -4.21875 "/></g></g></g><g fill="#9f9f9f" fill-opacity="1"><g transform="translate(112.937081, 86.280021)"><g><path d="M 2.5 0.046875 C 2.09375 0.046875 1.726562 -0.046875 1.40625 -0.234375 C 1.082031 -0.421875 0.828125 -0.675781 0.640625 -1 C 0.453125 -1.320312 0.359375 -1.6875 0.359375 -2.09375 C 0.359375 -2.5 0.453125 -2.863281 0.640625 -3.1875 C 0.828125 -3.519531 1.082031 -3.773438 1.40625 -3.953125 C 1.726562 -4.128906 2.09375 -4.21875 2.5 -4.21875 C 2.90625 -4.21875 3.269531 -4.128906 3.59375 -3.953125 C 3.914062 -3.773438 4.164062 -3.519531 4.34375 -3.1875 C 4.53125 -2.863281 4.625 -2.5 4.625 -2.09375 C 4.625 -1.6875 4.53125 -1.320312 4.34375 -1 C 4.164062 -0.675781 3.914062 -0.421875 3.59375 -0.234375 C 3.269531 -0.046875 2.90625 0.046875 2.5 0.046875 Z M 2.5 -0.46875 C 2.800781 -0.46875 3.066406 -0.535156 3.296875 -0.671875 C 3.535156 -0.804688 3.722656 -1 3.859375 -1.25 C 3.992188 -1.5 4.0625 -1.78125 4.0625 -2.09375 C 4.0625 -2.414062 3.992188 -2.703125 3.859375 -2.953125 C 3.722656 -3.203125 3.535156 -3.394531 3.296875 -3.53125 C 3.066406 -3.664062 2.800781 -3.734375 2.5 -3.734375 C 2.207031 -3.734375 1.941406 -3.664062 1.703125 -3.53125 C 1.460938 -3.394531 1.273438 -3.203125 1.140625 -2.953125 C 1.003906 -2.703125 0.9375 -2.414062 0.9375 -2.09375 C 0.9375 -1.78125 1.003906 -1.5 1.140625 -1.25 C 1.273438 -1 1.460938 -0.804688 1.703125 -0.671875 C 1.941406 -0.535156 2.207031 -0.46875 2.5 -0.46875 Z M 2.5 -0.46875 "/></g></g></g><g fill="#9f9f9f" fill-opacity="1"><g transform="translate(117.930914, 86.280021)"><g><path d="M 3 -0.25 C 2.894531 -0.15625 2.757812 -0.0820312 2.59375 -0.03125 C 2.4375 0.0195312 2.273438 0.046875 2.109375 0.046875 C 1.710938 0.046875 1.410156 -0.0546875 1.203125 -0.265625 C 0.992188 -0.484375 0.890625 -0.785156 0.890625 -1.171875 L 0.890625 -3.71875 L 0.140625 -3.71875 L 0.140625 -4.1875 L 0.890625 -4.1875 L 0.890625 -5.109375 L 1.453125 -5.109375 L 1.453125 -4.1875 L 2.71875 -4.1875 L 2.71875 -3.71875 L 1.453125 -3.71875 L 1.453125 -1.21875 C 1.453125 -0.96875 1.515625 -0.773438 1.640625 -0.640625 C 1.765625 -0.515625 1.941406 -0.453125 2.171875 -0.453125 C 2.285156 -0.453125 2.394531 -0.46875 2.5 -0.5 C 2.613281 -0.539062 2.710938 -0.59375 2.796875 -0.65625 Z M 3 -0.25 "/></g></g></g><g fill="#9f9f9f" fill-opacity="1"><g transform="translate(121.164566, 86.280021)"><g><path d="M 4.4375 -1.921875 L 0.9375 -1.921875 C 0.96875 -1.484375 1.132812 -1.128906 1.4375 -0.859375 C 1.738281 -0.597656 2.117188 -0.46875 2.578125 -0.46875 C 2.835938 -0.46875 3.078125 -0.507812 3.296875 -0.59375 C 3.515625 -0.6875 3.703125 -0.828125 3.859375 -1.015625 L 4.1875 -0.640625 C 4 -0.421875 3.765625 -0.25 3.484375 -0.125 C 3.203125 -0.0078125 2.894531 0.046875 2.5625 0.046875 C 2.132812 0.046875 1.753906 -0.046875 1.421875 -0.234375 C 1.085938 -0.421875 0.828125 -0.675781 0.640625 -1 C 0.453125 -1.320312 0.359375 -1.6875 0.359375 -2.09375 C 0.359375 -2.5 0.445312 -2.863281 0.625 -3.1875 C 0.8125 -3.519531 1.054688 -3.773438 1.359375 -3.953125 C 1.671875 -4.128906 2.023438 -4.21875 2.421875 -4.21875 C 2.804688 -4.21875 3.148438 -4.128906 3.453125 -3.953125 C 3.765625 -3.773438 4.007812 -3.523438 4.1875 -3.203125 C 4.363281 -2.878906 4.453125 -2.507812 4.453125 -2.09375 Z M 2.421875 -3.734375 C 2.015625 -3.734375 1.671875 -3.601562 1.390625 -3.34375 C 1.117188 -3.09375 0.96875 -2.757812 0.9375 -2.34375 L 3.90625 -2.34375 C 3.863281 -2.757812 3.707031 -3.09375 3.4375 -3.34375 C 3.164062 -3.601562 2.828125 -3.734375 2.421875 -3.734375 Z M 2.421875 -3.734375 "/></g></g></g></svg>